<svg xmlns="http://www.w3.org/2000/svg" width="16.347" height="16.347" viewBox="0 0 16.347 16.347">
  <g id="Group_2790" data-name="Group 2790" transform="translate(-426 -129)">
    <path id="Path_2634" data-name="Path 2634" d="M634.684,332.4a5.3,5.3,0,0,0-2.907-4.72,7.208,7.208,0,0,1-7.1,7.1,5.286,5.286,0,0,0,7.408,2.172l2.572.712-.712-2.572a5.265,5.265,0,0,0,.735-2.689Zm0,0" transform="translate(-192.337 -192.337)" fill="#fff"/>
    <path id="Path_2635" data-name="Path 2635" d="M438.484,135.242a6.242,6.242,0,1,0-11.618,3.173l-.843,3.046,3.046-.842a6.243,6.243,0,0,0,9.415-5.376Zm-7.2-1.453h-.958a1.916,1.916,0,1,1,3.208,1.414l-.814.745v.747h-.958v-1.169l1.125-1.03a.948.948,0,0,0,.312-.707.958.958,0,1,0-1.916,0Zm.479,3.863h.958v.958h-.958Zm0,0" fill="#fff"/>
  </g>
</svg>
