<svg xmlns="http://www.w3.org/2000/svg" width="16.166" height="16.167" viewBox="0 0 16.166 16.167">
  <path id="Path_2631" data-name="Path 2631" d="M438.046,141v1.224a2.451,2.451,0,0,1-2.448,2.448h-6.151A2.451,2.451,0,0,1,427,142.219V131.448A2.451,2.451,0,0,1,429.448,129H435.6a2.451,2.451,0,0,1,2.448,2.448v1.224a.612.612,0,1,1-1.224,0v-1.224a1.225,1.225,0,0,0-1.224-1.224h-6.151a1.225,1.225,0,0,0-1.224,1.224v10.771a1.225,1.225,0,0,0,1.224,1.224H435.6a1.225,1.225,0,0,0,1.224-1.224V141a.612.612,0,1,1,1.224,0Zm4.172-5.213-1.37-1.37a.612.612,0,0,0-.866.865l.975.975H433.61a.612.612,0,1,0,0,1.224h7.348l-.975.975a.612.612,0,0,0,.866.865l1.37-1.37a1.532,1.532,0,0,0,0-2.164Zm0,0" transform="translate(-426.75 -128.75)" fill="#fff" stroke="#fff" stroke-width="0.5"/>
</svg>
