<svg xmlns="http://www.w3.org/2000/svg" width="15.44" height="14.153" viewBox="0 0 15.44 14.153">
  <g id="Group_197" data-name="Group 197" transform="translate(0 -42.667)">
    <rect id="Rectangle_38" data-name="Rectangle 38" width="15.44" height="1.287" transform="translate(0 50.387)" fill="#fff"/>
    <path id="Path_243" data-name="Path 243" d="M171.954,43.954h2.573V44.6h1.287V43.31a.643.643,0,0,0-.643-.643h-3.86a.643.643,0,0,0-.643.643V44.6h1.287Z" transform="translate(-165.52)" fill="#fff"/>
    <path id="Path_244" data-name="Path 244" d="M47.627,128.417a.643.643,0,0,0-.6-.418H38.018a.643.643,0,0,0-.6.418L35.883,132.5H49.159Zm-7.036,3.442H39.3v-2.573h1.287Zm2.573,0H41.878v-2.573h1.287Zm2.573,0H44.451v-2.573h1.287Z" transform="translate(-34.801 -82.76)" fill="#fff"/>
    <path id="Path_245" data-name="Path 245" d="M35.883,362.667l1.532,4.086a.643.643,0,0,0,.6.418h9.007a.643.643,0,0,0,.6-.418l1.532-4.086Zm6.8,1.612a.421.421,0,0,1,.179-.229.318.318,0,0,1,.472.157.421.421,0,0,1,.006.29.39.39,0,0,1-.355.28.309.309,0,0,1-.1-.016h0A.372.372,0,0,1,42.685,364.279Zm-.446-.481a.433.433,0,1,1-.376.429A.406.406,0,0,1,42.239,363.8Zm-.972.972a.347.347,0,0,1,.17-.458.3.3,0,0,1,.257.021.4.4,0,0,1,.183.475.3.3,0,0,1-.177.188.287.287,0,0,1-.1.019A.366.366,0,0,1,41.267,364.769Zm2.026.9a.395.395,0,0,1-.306.358.4.4,0,0,1-.088.01A.392.392,0,0,1,42.74,366a.777.777,0,0,0-.618,0l-.005,0a.4.4,0,0,1-.492-.575L41.9,365a.624.624,0,0,1,1.051,0l.278.434A.393.393,0,0,1,43.293,365.669Zm.431-.473a.381.381,0,0,1-.3.159.294.294,0,0,1-.177-.057.369.369,0,0,1,.436-.588h0A.347.347,0,0,1,43.724,365.2Z" transform="translate(-34.801 -310.35)" fill="#fff"/>
  </g>
</svg>
