<svg xmlns="http://www.w3.org/2000/svg" width="17.281" height="15.104" viewBox="0 0 17.281 15.104">
  <g id="Group_2334" data-name="Group 2334" transform="translate(240 208)">
    <path id="Path_2142" data-name="Path 2142" d="M-166.161-24.114a4.19,4.19,0,0,0-3.543-1.937,4.19,4.19,0,0,0-3.543,1.937l-1.874,2.923a2.645,2.645,0,0,0-.415,1.62,2.646,2.646,0,0,0,.632,1.548,2.646,2.646,0,0,0,1.431.866,2.645,2.645,0,0,0,1.665-.158l.035-.016a5.236,5.236,0,0,1,4.169.016,2.649,2.649,0,0,0,1.069.226,2.684,2.684,0,0,0,.6-.068,2.646,2.646,0,0,0,1.431-.866,2.645,2.645,0,0,0,.633-1.548,2.646,2.646,0,0,0-.415-1.62Zm0,0" transform="translate(-62.283 -175.808)"/>
    <path id="Path_2143" data-name="Path 2143" d="M-236.9-104.368a2.043,2.043,0,0,0,1.192-1.265,2.639,2.639,0,0,0-.047-1.82,2.641,2.641,0,0,0-1.186-1.381,2.043,2.043,0,0,0-1.732-.14,2.339,2.339,0,0,0-1.145,3.085,2.467,2.467,0,0,0,2.219,1.65,1.934,1.934,0,0,0,.7-.129Zm0,0" transform="translate(0 -95.557)" />
    <path id="Path_2144" data-name="Path 2144" d="M-113.048-202.215a2.736,2.736,0,0,0,2.538-2.892A2.736,2.736,0,0,0-113.048-208a2.736,2.736,0,0,0-2.538,2.893,2.736,2.736,0,0,0,2.538,2.892Zm0,0" transform="translate(-120.215 0)" />
    <path id="Path_2145" data-name="Path 2145" d="M45.723-162.611h0a2.07,2.07,0,0,0,.654.106,2.631,2.631,0,0,0,2.4-1.885,2.836,2.836,0,0,0-.04-1.957A2.187,2.187,0,0,0,47.4-167.64a2.187,2.187,0,0,0-1.845.236,2.837,2.837,0,0,0-1.2,1.543,2.509,2.509,0,0,0,1.376,3.25Zm0,0" transform="translate(-274.602 -38.894)" />
    <path id="Path_2146" data-name="Path 2146" d="M140.487-36.562h0a2.341,2.341,0,0,0-3.218.689,2.339,2.339,0,0,0,.282,3.278,1.984,1.984,0,0,0,1.192.385,2.567,2.567,0,0,0,2.027-1.073,2.34,2.34,0,0,0-.282-3.278Zm0,0" transform="translate(-364.02 -165.281)" />
  </g>
</svg>
