<svg id="Group_2786" data-name="Group 2786" xmlns="http://www.w3.org/2000/svg" width="18.549" height="18.549" viewBox="0 0 18.549 18.549">
  <path id="Path_2632" data-name="Path 2632" d="M183.717,181a2.717,2.717,0,1,0,2.717,2.717A2.72,2.72,0,0,0,183.717,181Z" transform="translate(-174.443 -174.443)" fill="#fff"/>
  <path id="Path_2633" data-name="Path 2633" d="M18.549,10.807V7.742l-2.515-.5a6.983,6.983,0,0,0-.547-1.317l1.4-2.1L14.724,1.659l-2.1,1.4A6.982,6.982,0,0,0,11.3,2.515L10.807,0H7.742l-.5,2.515a6.983,6.983,0,0,0-1.317.547l-2.1-1.4L1.659,3.825l1.4,2.1a6.982,6.982,0,0,0-.547,1.317L0,7.742v3.065l2.515.5a6.983,6.983,0,0,0,.547,1.317l-1.4,2.1L3.825,16.89l2.1-1.4a6.982,6.982,0,0,0,1.317.547l.5,2.515h3.065l.5-2.515a6.983,6.983,0,0,0,1.317-.547l2.1,1.4,2.167-2.167-1.4-2.1a6.982,6.982,0,0,0,.547-1.317ZM9.274,13.078a3.8,3.8,0,1,1,3.8-3.8A3.809,3.809,0,0,1,9.274,13.078Z" fill="#fff"/>
</svg>
