<svg id="Group_2774" data-name="Group 2774" xmlns="http://www.w3.org/2000/svg" width="15.351" height="14.869" viewBox="0 0 15.351 14.869">
  <path id="Path_124" data-name="Path 124" d="M373.63,427.23a2.254,2.254,0,0,1-1.445.553l-.068,0v2.765h0v3.895h2.235a1.656,1.656,0,0,0,1.654-1.654v-5.223a2.115,2.115,0,0,1-.932.219A2.254,2.254,0,0,1,373.63,427.23Z" transform="translate(-361.619 -419.572)" fill="#fff"/>
  <path id="Path_125" data-name="Path 125" d="M94.89,339.474v-2.607H92v1a1.894,1.894,0,0,0,2.89,1.612Z" transform="translate(-92 -332.595)" fill="#fff"/>
  <path id="Path_126" data-name="Path 126" d="M194.113,339.757a1.883,1.883,0,0,0,1-.283v-2.607h-1.991v2.607A1.884,1.884,0,0,0,194.113,339.757Z" transform="translate(-189.327 -332.595)" fill="#fff"/>
  <path id="Path_127" data-name="Path 127" d="M109.536,224.374a2.138,2.138,0,0,0-1.968-1.484H97.452a2.138,2.138,0,0,0-1.968,1.484l-.539,1.888h15.13Z" transform="translate(-94.835 -222.89)" fill="#fff"/>
  <path id="Path_128" data-name="Path 128" d="M424.48,336.867v2.607a1.894,1.894,0,0,0,2.89-1.612v-1Z" transform="translate(-412.019 -332.595)" fill="#fff"/>
  <path id="Path_129" data-name="Path 129" d="M271.237,339.757a1.883,1.883,0,0,0,1-.283v-2.607h-1.991v2.607A1.881,1.881,0,0,0,271.237,339.757Z" transform="translate(-263.562 -332.595)" fill="#fff"/>
  <path id="Path_130" data-name="Path 130" d="M348.354,339.757a1.883,1.883,0,0,0,1-.283v-2.607h-1.991v2.607A1.883,1.883,0,0,0,348.354,339.757Z" transform="translate(-337.789 -332.595)" fill="#fff"/>
  <path id="Path_131" data-name="Path 131" d="M125.868,427.23a2.792,2.792,0,0,1-2.89,0,2.792,2.792,0,0,1-2.89,0,2.793,2.793,0,0,1-2.376.243v5.314a1.656,1.656,0,0,0,1.654,1.654h6.981V427.46A2.783,2.783,0,0,1,125.868,427.23Zm-1.206,3.967a.69.69,0,0,1-1.356.257h-2.555a.69.69,0,0,1-1.37-.128.682.682,0,0,1,.214-.5.69.69,0,1,1,1.156-.626h2.556a.688.688,0,0,1,.678-.563h0a7.453,7.453,0,0,0,.677,1.557Z" transform="translate(-116.747 -419.572)" fill="#fff"/>
</svg>
