<svg xmlns="http://www.w3.org/2000/svg" width="17.368" height="17.335" viewBox="0 0 17.368 17.335">
  <g id="Group_2335" data-name="Group 2335" transform="translate(-222.544 -335.169)">
    <path id="Path_253" data-name="Path 253" d="M280.3,398.757h.993v7.088h-6.1c0-.408,0-.819,0-1.23,0-1.224-.582-1.791-1.817-1.786-.776,0-1.552.007-2.327,0a2.527,2.527,0,0,1-2.34-1.93.509.509,0,0,1,0-.109,2.54,2.54,0,0,0,1.84-.956,2.506,2.506,0,0,0,.543-1.794c-.014-.2-.056-.382.171-.507.073-.04.1-.171.139-.266.122-.34.215-.692.36-1.022A2.458,2.458,0,0,1,274,394.678c.38-.024.763,0,1.2,0,0,.133,0,.251,0,.37.01,1.417-.026,2.836.046,4.249a2.433,2.433,0,0,0,1.58,2.35,2.563,2.563,0,0,0,3.481-2.391C280.305,399.1,280.3,398.945,280.3,398.757Zm-6.144-1.04v-.991h-.977v.991Z" transform="translate(-41.383 -53.34)" fill="#fff"/>
    <path id="Path_254" data-name="Path 254" d="M341.334,394.748a2.554,2.554,0,0,1,2.987,2.083,8.608,8.608,0,0,1,.04,1.392c0,.383.005.765,0,1.148a1.523,1.523,0,0,1-3.042.046c-.019-1.52-.007-3.04-.006-4.56A.638.638,0,0,1,341.334,394.748Z" transform="translate(-106.474 -53.394)" fill="#fff"/>
    <path id="Path_255" data-name="Path 255" d="M260.992,424.282c.678,0,1.316,0,1.954.007a.256.256,0,0,1,.177.152,1.522,1.522,0,0,1-1.441,1.874.259.259,0,0,1-.2-.125C261.313,425.568,261.159,424.941,260.992,424.282Z" transform="translate(-34.469 -79.891)" fill="#fff"/>
    <path id="Path_256" data-name="Path 256" d="M313.525,414.57Z" transform="translate(-80.749 -71.184)" fill="#fff"/>
    <path id="Path_257" data-name="Path 257" d="M234.537,337.722c-1.84-.736-3.677-1.478-5.521-2.2a4.4,4.4,0,0,0-4.251.452c-.664.438-1.32.888-1.989,1.32a.436.436,0,0,0-.233.421c.01,1.437,0,2.875.006,4.312,0,.089.012.177.019.273h0c.806,0,1.59.01,2.374,0a2.732,2.732,0,0,0,1.692-.52,2.606,2.606,0,0,1,1.908-.484c.3.014.6,0,.9,0h0l.009-.009c.244-.046.221-.233.221-.233v-1.572a.243.243,0,0,0-.243-.243h-2.775v-.968h0c.088,0,.158-.011.229-.011,1.1,0,2.192,0,3.288,0a1.194,1.194,0,0,1,.417.089c.768.3,1.533.615,2.3.922.427.171.856.337,1.3.513h0l.569-1.547A.4.4,0,0,0,234.537,337.722Z" transform="translate(0 0)" fill="#fff"/>
  </g>
</svg>
