<svg id="Group_2336" data-name="Group 2336" xmlns="http://www.w3.org/2000/svg" width="15.944" height="15.945" viewBox="0 0 15.944 15.945">
  <path id="Subtraction_4" data-name="Subtraction 4" d="M10.45,15.945H5.494a.574.574,0,0,1-.573-.573V11.023H.573A.574.574,0,0,1,0,10.45V5.494a.574.574,0,0,1,.573-.573H4.921V.573A.574.574,0,0,1,5.494,0H10.45a.574.574,0,0,1,.573.573V4.921h4.348a.574.574,0,0,1,.573.573V10.45a.574.574,0,0,1-.573.573H11.023v4.348A.574.574,0,0,1,10.45,15.945ZM7.972,10.092a.229.229,0,0,1,.188.1,1.036,1.036,0,0,0,.845.439c.03,0,.068,0,.118-.007a1.033,1.033,0,0,0,.322-1.961,1.133,1.133,0,0,1-.537-.537,1.034,1.034,0,0,0-1.871,0,1.138,1.138,0,0,1-.537.537,1.033,1.033,0,0,0,.323,1.961c.05,0,.086.007.118.007a1.04,1.04,0,0,0,.844-.439A.227.227,0,0,1,7.972,10.092Zm2.66-3.36a.8.8,0,0,0-.667.459.859.859,0,0,0-.081.65.523.523,0,0,0,.252.319.5.5,0,0,0,.233.057.8.8,0,0,0,.666-.458.9.9,0,0,0,.1-.569.543.543,0,0,0-.271-.4A.493.493,0,0,0,10.632,6.731Zm-5.321,0a.49.49,0,0,0-.232.057.709.709,0,0,0-.171.97.8.8,0,0,0,.667.459.493.493,0,0,0,.233-.057.522.522,0,0,0,.252-.32.865.865,0,0,0-.081-.65A.8.8,0,0,0,5.311,6.731ZM9.2,5.314a.927.927,0,0,0-.812.857,1.085,1.085,0,0,0,.171.807.667.667,0,0,0,.433.277.6.6,0,0,0,.094.007A.927.927,0,0,0,9.9,6.406a.893.893,0,0,0-.6-1.084A.6.6,0,0,0,9.2,5.314Zm-2.459,0a.605.605,0,0,0-.093.007.658.658,0,0,0-.432.276,1.09,1.09,0,0,0-.172.808.925.925,0,0,0,.812.856.6.6,0,0,0,.093-.007.893.893,0,0,0,.6-1.084A.927.927,0,0,0,6.742,5.313Z" transform="translate(0 0)" fill="#fff"/>
</svg>
