<svg xmlns="http://www.w3.org/2000/svg" width="18.853" height="18.853" viewBox="0 0 18.853 18.853">
  <g id="Group_132" data-name="Group 132" transform="translate(201 78.11)">
    <path id="Path_149" data-name="Path 149" d="M-201,314.017a.542.542,0,0,1,.685-.353.674.674,0,0,1,.246.148q.786.725,1.563,1.461a.169.169,0,0,0,.182.043q.55-.127,1.1-.234a2.427,2.427,0,0,1,.347-.021c.411-.019.822-.028,1.232-.058.88-.065,1.76-.129,2.637-.215a9.56,9.56,0,0,0,1.932-.365.121.121,0,0,1,.1.022q1.007.9,2.009,1.8l1.375,1.232.075.07-.059.1c-.224.363-.45.726-.673,1.09a4.182,4.182,0,0,0-.457,1.389,19.981,19.981,0,0,0-.378,3.3c0,.04,0,.081,0,.125.131.018.258.03.383.055a2.149,2.149,0,0,1,.908.37.809.809,0,0,1,.347.57.378.378,0,0,1-.187.383,1.157,1.157,0,0,1-.515.165l-.13.018h-1.414a.33.33,0,0,0-.053-.017,1.072,1.072,0,0,1-.81-.582,1.9,1.9,0,0,1-.229-.723c-.076-.731-.139-1.463-.21-2.194-.054-.553-.108-1.106-.173-1.658a3.292,3.292,0,0,0-.113-.475.116.116,0,0,0-.158-.089,1.142,1.142,0,0,1-.281.027c-.549-.019-1.1-.037-1.646-.068a11.379,11.379,0,0,0-1.647-.026c-.24.021-.479.063-.718.1-.071.011-.146.032-.152.127a3.888,3.888,0,0,1-.349,1.274,13.378,13.378,0,0,1-.859,1.654.557.557,0,0,0-.073.414,1.9,1.9,0,0,0,.269.618.275.275,0,0,0,.25.145,2.42,2.42,0,0,1,.82.152.691.691,0,0,1,.492.714.473.473,0,0,1-.385.527,2.517,2.517,0,0,1-.437.06c-.159.013-.319.014-.479.021h-.094a.743.743,0,0,0-.083-.01c-.27,0-.54-.01-.811-.009a1,1,0,0,1-.647-.22,4.37,4.37,0,0,1-1.2-1.539.654.654,0,0,1-.055-.45c.055-.232.118-.462.183-.691.092-.323.2-.642.283-.966a1.263,1.263,0,0,0-.13-1c-.065-.111-.125-.225-.181-.341-.161-.333-.332-.662-.473-1a2.062,2.062,0,0,1-.073-1.421c.094-.306.194-.61.3-.914a.146.146,0,0,0-.017-.146c-.13-.193-.259-.386-.382-.584-.332-.533-.66-1.067-.989-1.6Z" transform="translate(0 -384.359)" fill="#fff"/>
    <path id="Path_151" data-name="Path 151" d="M368.323,119.01a2.519,2.519,0,0,1-1.1.883,3.136,3.136,0,0,1-.676.224,1.639,1.639,0,0,1-1.012-.132,7.244,7.244,0,0,1-1.235-.7c-.1-.069-.213-.127-.327-.194a5.139,5.139,0,0,1-.68,1.452l-3.245-2.905a.152.152,0,0,1,.025-.028,10.524,10.524,0,0,0,2.5-2.276c.382-.465.721-.966,1.085-1.446a2.342,2.342,0,0,1,.356-.4.345.345,0,0,1,.6.213,1.284,1.284,0,0,1,.006.391c-.026.259-.079.515-.1.774a.751.751,0,0,0,.261.629q1.354,1.263,2.7,2.534c.217.2.436.408.648.617a2.553,2.553,0,0,1,.2.248Z" transform="translate(-550.471 -187.882)" fill="#fff"/>
    <path id="Path_152" data-name="Path 152" d="M-129.7-78.11c.154.142.307.286.463.426l7.609,6.815c.025.023.05.047.084.079l-.456.411-8.174-7.321c.131-.118.255-.228.378-.34a.669.669,0,0,0,.058-.069Z" transform="translate(-69.491)" fill="#fff"/>
  </g>
</svg>
