<svg xmlns="http://www.w3.org/2000/svg" width="92.712" height="108.449" viewBox="0 0 92.712 108.449"><defs></defs><g transform="translate(-141 -269)"><g transform="translate(145.396 348.697)"><path class="a" d="M50.528,13.592V-5.166a5,5,0,0,0-4.995-5H-32.788a5,5,0,0,0-5,5V13.592a5,5,0,0,0,5,4.995H45.534a5,5,0,0,0,4.995-4.995m-62.592-10.1q0,1.585.131,4.751t.129,4.735c0,.3-.14.451-.418.451h-5.144c-.283,0-.423-.168-.423-.51,0-.977.04-2.445.108-4.4s.112-3.424.112-4.4c0-.28-.044-.43-.131-.449A41.592,41.592,0,0,0-19.65,8.154q-1.045,2.587-2.092,5.158a.618.618,0,0,1-.36.393c-.051.007-.243.014-.58.014-.51,0-.806-.1-.9-.29-.521-1.066-1.213-2.615-2.061-4.649Q-27.018,5.555-27.7,4.115a.536.536,0,0,0-.133-.159.672.672,0,0,0-.1.421q0,1.423.075,4.272t.068,4.27c0,.341-.136.51-.407.51h-4.85c-.194,0-.313-.033-.355-.1a.584.584,0,0,1-.068-.325q0-1.585.152-4.761t.154-4.756q0-1.686-.147-6.32c-.007-.8-.054-2-.126-3.588l-.016-.248c-.012-.194.194-.29.608-.29q.8,0,2.4-.051c1.066-.033,1.865-.051,2.4-.051.105,0,.257.2.451.61l4.242,9.314c.3.629.554.944.755.944.105,0,.332-.365.682-1.089q1.469-3.054,4.345-9.2c.164-.379.341-.566.535-.566.283,0,.706.014,1.271.042s1,.044,1.285.044c.245,0,.612-.026,1.113-.072S-12.5-7.1-12.253-7.1c.29,0,.437.115.437.348q0,1.714-.124,5.121c-.086,2.272-.124,3.978-.124,5.121M5.907.3a2.7,2.7,0,0,1-.042.3A31.636,31.636,0,0,0,5.4,6.165q0,1.118.129,3.326T5.659,12.8c0,.39-.171.6-.507.626q-1.8.13-4.125.129c-.187,0-.311-.276-.372-.834s-.136-.839-.227-.848a1.343,1.343,0,0,0-.306.245,4.87,4.87,0,0,1-3.485,1.643,5.848,5.848,0,0,1-4.693-2.239,7.5,7.5,0,0,1-1.758-5A7.832,7.832,0,0,1-8,1.124,6.575,6.575,0,0,1-2.825-1,4.434,4.434,0,0,1,.779.6c.037.049.072.072.1.072.089,0,.185-.234.3-.706s.245-.7.4-.7a12.8,12.8,0,0,1,2.05.306A20.91,20.91,0,0,1,5.689.063c.145.058.217.136.217.234m12.1,8.874a11.587,11.587,0,0,1-.112,1.323c-.068.591-.108,1.024-.108,1.3a1.048,1.048,0,0,1-.084.531,1.783,1.783,0,0,1-.481.337,8.471,8.471,0,0,1-4.153,1.031q-4.2,0-4.2-3.211,0-.961.075-2.884t.07-2.884c0-.425-.245-.638-.741-.638H8.085c-.086.009-.152.014-.187.014-.372,0-.554-.131-.554-.393,0-.154.012-.393.035-.713s.04-.556.04-.711c0-.2-.012-.514-.04-.93S7.344.614,7.344.411s.311-.3.93-.32c.348-.009.538-.105.566-.29A10.746,10.746,0,0,0,8.9-1.943q-.06-1.872-.058-1.786c0-1.124.11-1.685.323-1.685a5.342,5.342,0,0,1,1.12.173,10.036,10.036,0,0,0,1.145.217c.493.068,1.241.161,2.237.278.243.019.362.1.362.245q0,.582-.091,1.758t-.1,1.774c0,.474.14.711.423.711.337,0,.853-.014,1.543-.042s1.2-.044,1.552-.044c.215,0,.318.072.318.217,0,.224-.023.556-.07,1a9.986,9.986,0,0,0-.072,1c0,.231,0,.57.016,1.017s.012.785.012,1.017c0,.2-.14.306-.418.306-.2,0-.521-.009-.977-.021s-.778-.023-.972-.023H14.1c-.147,0-.217.213-.217.64V5.845c.007.465.012.809.012,1.031a3.54,3.54,0,0,0,.28,1.685,1.672,1.672,0,0,0,1.538.626,4.692,4.692,0,0,0,1.038-.168,4.716,4.716,0,0,1,.954-.166c.2,0,.3.105.3.318M30.368.077a13.67,13.67,0,0,1-.435,1.715q-.407,1.465-.531,1.772c-.079.2-.166.306-.255.306-.007,0-.3-.079-.879-.234a5.679,5.679,0,0,0-1.4-.231,2.778,2.778,0,0,0-2.064.776,2.8,2.8,0,0,0-.771,2.071,2.693,2.693,0,0,0,.844,2.1,3.143,3.143,0,0,0,2.192.762,3.837,3.837,0,0,0,1.437-.325,6.973,6.973,0,0,0,.757-.327q.249,0,.638,1.844a14.566,14.566,0,0,1,.337,2.239c0,.367-.6.682-1.8.942a10.945,10.945,0,0,1-2.255.306,7.008,7.008,0,0,1-5.273-2.15,7.4,7.4,0,0,1-2.075-5.362A7.43,7.43,0,0,1,20.918.927a7,7,0,0,1,5.266-2.171,7.6,7.6,0,0,1,3.807.928c.252.136.376.266.376.393M46.405,2.9,46.38,12.919c0,.341-.136.528-.407.566q-.466.06-2.125.058a14.193,14.193,0,0,1-2.218-.115.555.555,0,0,1-.481-.626c0-.832.016-2.087.042-3.763s.042-2.928.042-3.761a1.515,1.515,0,0,0-1.727-1.7,2.793,2.793,0,0,0-1.363.465c-.575.339-.86.692-.86,1.061V8.691c0,.465.012,1.166.03,2.1s.028,1.634.028,2.1c0,.358-.152.556-.451.594s-1.143.058-2.524.058a8.928,8.928,0,0,1-1.718-.115c-.348-.079-.521-.248-.521-.51,0-.764,0-1.914.014-3.45s.016-2.685.016-3.45q0-4.754-.105-7.86c-.028-.727-.054-1.454-.07-2.181a15.281,15.281,0,0,0-.262-2.164,1.485,1.485,0,0,1-.044-.276.287.287,0,0,1,.217-.29,5.71,5.71,0,0,1,1.321-.161c.776-.028,1.225-.051,1.353-.072l2.629-.3c.157,0,.234.1.234.3,0,.311-.021.732-.058,1.264-.04.619-.058,1.042-.058,1.264q-.088,3.281-.089,5.186c0,.194.049.29.147.29.019,0,.264-.168.741-.507a9.814,9.814,0,0,1,1.61-.944,5.487,5.487,0,0,1,2.223-.51,4.918,4.918,0,0,1,3.113.975A3.424,3.424,0,0,1,46.405,2.9M-.062,8.306A2.817,2.817,0,0,0,.72,6.251,2.828,2.828,0,0,0-.058,4.209a2.693,2.693,0,0,0-2.026-.8A2.672,2.672,0,0,0-4.1,4.2a2.823,2.823,0,0,0-.771,2.047,2.8,2.8,0,0,0,.813,2.019,2.647,2.647,0,0,0,1.977.841A2.688,2.688,0,0,0-.062,8.306" transform="translate(37.787 10.165)"/></g><g transform="translate(207.707 299.76)"><path class="a" d="M14.1,19.292a27.644,27.644,0,0,1-.255,3.055,28.133,28.133,0,0,0-.252,3.008,2.379,2.379,0,0,1-.2,1.225,4,4,0,0,1-1.11.771,19.553,19.553,0,0,1-9.6,2.384q-9.7,0-9.706-7.421,0-2.216.168-6.666t.171-6.666C-6.684,8-7.259,7.5-8.4,7.5h-.437a4.389,4.389,0,0,1-.439.035c-.851,0-1.274-.3-1.274-.907q0-.536.084-1.645t.082-1.645c0-.472-.028-1.187-.082-2.15s-.084-1.68-.084-2.148q0-.673,2.15-.741c.8-.021,1.241-.245,1.306-.671A24.644,24.644,0,0,0-6.955-6.4q-.137-4.333-.136-4.13,0-3.9.741-3.9a12.036,12.036,0,0,1,2.585.4,23.7,23.7,0,0,0,2.655.5q1.707.231,5.17.636c.559.047.839.236.839.573q0,1.343-.217,4.062t-.217,4.1c0,1.1.323,1.648.972,1.648q1.178,0,3.56-.1t3.592-.1c.493,0,.739.168.739.5q0,.775-.166,2.318c-.112,1.031-.168,1.8-.168,2.318q0,.806.033,2.349c.023,1.031.033,1.816.033,2.351,0,.47-.323.706-.972.706q-.673,0-2.251-.049c-1.054-.035-1.8-.051-2.248-.051H5.068q-.5,0-.5,1.479V11.6c.021,1.075.033,1.872.033,2.386a8.263,8.263,0,0,0,.64,3.894q.9,1.444,3.56,1.444a10.871,10.871,0,0,0,2.4-.386,10.792,10.792,0,0,1,2.2-.386q.7,0,.706.739" transform="translate(10.547 14.427)"/></g><g transform="translate(173.958 309.259)"><path class="a" d="M15.525,12.877c-.853.538-1.7,1.073-2.555,1.613A12.694,12.694,0,0,1,6.959,16.1a10.026,10.026,0,0,1-4.431-.94A4.76,4.76,0,0,1-.328,11.835q7.86-.6,11.821-1.04,6.58-.673,6.953-.739,2.181-.47,2.183-3.863a15.611,15.611,0,0,0-4.5-11.181A14.509,14.509,0,0,0,6.477-9.63c-.185.449-.39.89-.617,1.321-.182.362-.383.708-.591,1.054l-.182.309A17.358,17.358,0,0,1,2.3-3.558L2.151-3.4a14.361,14.361,0,0,1-4.3,2.9l-.294.131-.425.175A17.183,17.183,0,0,1-8.658,1.149l-.507.012c-.241.009-.383.009-.383.009h-.975a20.921,20.921,0,0,0-1.087,6.9q0,7.927,5.034,12.663,4.9,4.663,12.9,4.665,8.631,0,12.726-4.4c.339-.358.5-.615.5-.774A12.563,12.563,0,0,0,17.89,16.3q-1.658-3.089-2.365-3.424M-.9,4.547A6.128,6.128,0,0,1,.377.686,4.239,4.239,0,0,1,3.872-1.095,4.665,4.665,0,0,1,7.4.485a5.2,5.2,0,0,1,1.477,3.66q0,.368-1.108.538a59.014,59.014,0,0,1-7.724.771A.814.814,0,0,1-.9,4.547" transform="translate(11.61 9.63)"/></g><g transform="translate(165.008 291.121)"><path class="b" d="M0,15.914c.467.016.926.023,1.374.023q.635,0,1.248-.021Zm20.707-4.536a17.311,17.311,0,0,1-4.431,2.957,14.459,14.459,0,0,0,4.431-2.957m2-23.278a17.213,17.213,0,0,1,2.928,5.778A13.5,13.5,0,0,0,22.706-11.9" transform="translate(0 11.901)"/></g><g transform="translate(169.544 307.52)"><path class="a" d="M0,.066.115.243l5.067.989.028,0,.145-.119L5.24.94.175-.049Z" transform="translate(0 0.049)"/></g><g transform="translate(170.624 308.751)"><path class="a" d="M.07.382-.052.553.1.679l.026,0L4.1.006l.122-.171L4.054-.286Z" transform="translate(0.052 0.286)"/></g><g transform="translate(165.009 286.664)"><path class="b" d="M5.441,18.465c-.14,0-.28.007-.423.007H4.96l-6.406-.007h0l4.595,0s.379.04,1.038.04c.346,0,.771-.009,1.257-.044m-6.7-.007-2.8,0h-.009l2.622,0,.189-.007M22.213.357c.012.278.019.559.019.841a17.667,17.667,0,0,1-.164,2.4,15.17,15.17,0,0,1-2.274,6.453q-.312.526-.664,1.028A15.967,15.967,0,0,0,22.213.357M13.846-13.809l.007.012c.091.082.187.164.29.245l-.007.012a10.1,10.1,0,0,1,1.176.911,17.349,17.349,0,0,1,1.641,1.4,17.128,17.128,0,0,0-2.809-2.318Z" transform="translate(4.069 13.809)"/></g><g transform="translate(165.008 304.071)"><path class="c" d="M0,8.5l2.622,0h0Zm8.253-.012L2.812,8.5l-.187.007,6.406.007h0c-.262,0-.521-.009-.778-.021M26.137-6.36A17.161,17.161,0,0,1,23.865.093,15.167,15.167,0,0,0,26.137-6.36" transform="translate(0 6.36)"/></g><g transform="translate(141 269)"><path class="a" d="M28.784,18.692a17.243,17.243,0,0,0-6.92-13.827,10.305,10.305,0,0,0-1.176-.912l0-.012a4.69,4.69,0,0,1-1.631-2.213l-.1-.4L19.019.051l.573-13.144a.811.811,0,0,0-.685-.848c-1.36-.192-4.49.159-7.907,5.967A1.539,1.539,0,0,1,9.554-7.2C5.936-7.493-6.86-7.809-9.153,2.264a1.518,1.518,0,0,1-1.456,1.169l-7.785.143s-3.221-.241-3.129,3.779A11.8,11.8,0,0,0-14.643,17.9l0-.019.075.044a11.355,11.355,0,0,0,4.078.979c.437.051.879.1,1.318.138a7.1,7.1,0,0,0,4.3-.844C-2.92,16.322-.087,14-.087,14,.52,9.262,3.077,8.839,3.9,8.827l.257.259a13.236,13.236,0,0,0,1.776,5.249l1,.647c4.672,2.134,4.67,5.792,4.593,6.7a4.532,4.532,0,0,0,.933,2.781c.5.584-.479,1.328-.479,1.328l-.023.372C11.8,27.6,9.846,28.315,8.64,28.616c-.248.063-.465.108-.629.14a1.871,1.871,0,0,1-.615.007c-.311-.049-.619-.1-.923-.14-19.186-2.765-22.888,3.555-23.6,5.894-.049.5-.086,1.091-.089,1.816,0,.409,0,.837-.007,1.239-.049,8.8-.075,15.8-.075,20.8q0,2.608,1.082,2.606,2.268,0,6.82.313t6.822.316q.782,0,.783-2.066,0-4.046-.337-12.216-.294-7.2-.33-11.265a3.628,3.628,0,0,1,.818-.1l12.373-.016c.257.012.517.021.778.021.3,0,.591-.009.886-.023A17.274,17.274,0,0,0,28.784,18.692m-45-10.44a.539.539,0,0,1-.54.54.539.539,0,0,1-.54-.54.539.539,0,0,1,.54-.54.539.539,0,0,1,.54.54m.879,2.461a.54.54,0,0,1-.54.54.54.54,0,0,1-.54-.54.541.541,0,0,1,.54-.542.541.541,0,0,1,.54.542m1.7-2.461a.54.54,0,0,1-.54.54.541.541,0,0,1-.542-.54.541.541,0,0,1,.542-.54.54.54,0,0,1,.54.54M-2.233,3.9a1.773,1.773,0,0,1,.124,1.419l-.182.131-.126.091-.1-.016-.206-.409a1.137,1.137,0,0,0-.105-.977,1.45,1.45,0,0,0-.809-.61,1.643,1.643,0,0,0-.542-.086c-.019,0-.035.009-.054.009a1.343,1.343,0,0,0-.446.089,1.133,1.133,0,0,0-.64.713l-.411.2-.1-.2-.1-.206h0A1.777,1.777,0,0,1-4.383,2.818c.049,0,.089-.03.136-.03A.675.675,0,0,1-4.18,2.8a2.35,2.35,0,0,1,.746.112,2.32,2.32,0,0,1,.689.367,1.977,1.977,0,0,1,.491.554c.012.021.009.047.021.068" transform="translate(21.526 13.979)"/></g><g transform="translate(168.315 303.239)"><path class="a" d="M.615.952A1.109,1.109,0,0,1-.46.164L-.3-.142.005.017.33.4A.724.724,0,0,0,.856.426.663.663,0,0,0,1.328-.4l.159-.309L1.8-.553A1.112,1.112,0,0,1,1.7.335a1.225,1.225,0,0,1-.7.554Z" transform="translate(0.46 0.712)"/></g><g transform="translate(165.016 286.676)"><path class="d" d="M10.25,0c.374.666,16.842,30.369-17.915,32.258l2.8,0,5.441-.007c.257.012.517.021.778.021h.058l.423-.007A18.38,18.38,0,0,0,15.5,24.91c.007-.012.016-.021.023-.033q.351-.5.666-1.031A17.1,17.1,0,0,0,18.462,17.4a17.323,17.323,0,0,0,.166-2.4q0-.424-.021-.841a18.674,18.674,0,0,0-5.261-11.59,17.267,17.267,0,0,0-1.638-1.4A10.305,10.305,0,0,0,10.532.257l0-.012Q10.386.123,10.25,0" transform="translate(7.665)"/></g></g></svg>