<svg xmlns="http://www.w3.org/2000/svg" width="191.619" height="215.934" viewBox="0 0 191.619 215.934">
  <g id="Group_2444" data-name="Group 2444" transform="translate(-88.655 -221.013)">
    <path id="Path_2256" data-name="Path 2256" d="M278.043,161.837c-14.986-37.977-59.237-15.229-67.058-37.212s-42.171-81.6-92.744-38.725S99.3,185.939,123.348,220.866s189.673,29.615,154.695-59.03" transform="translate(-2.6 150.245)" fill="rgba(216,225,255,0.3)"/>
    <g id="Group_2421" data-name="Group 2421" transform="translate(92.467 285.898)">
      <g id="Group_2420" data-name="Group 2420" transform="translate(0)">
        <ellipse id="Ellipse_22" data-name="Ellipse 22" cx="88.795" cy="14.912" rx="88.795" ry="14.912" transform="translate(3.052 121.226)" fill="#d8e1ff"/>
        <g id="Group_2410" data-name="Group 2410" transform="translate(50.971 35.798)">
          <g id="Group_2398" data-name="Group 2398" transform="translate(0)">
            <g id="Group_2390" data-name="Group 2390" transform="translate(0 35.536)">
              <path id="Path_2152" data-name="Path 2152" d="M58.545,423.65c8.243,2.783,12.53,3.247,19.538,12.265,4.657,5.992,4.473-8.38-21.582-23.855-6.029-3.58-4.852-19.52-.93-26.632,3.675-6.665-6.017-12.658-10.449-4.365C39.558,391.468,30.827,414.29,58.545,423.65Z" transform="translate(-39.289 -377.021)" fill="#d18e2a"/>
            </g>
            <path id="Path_2153" data-name="Path 2153" d="M70.1,430.612c-3.525-6.411-14.318-17.235-22.636-8.652-10.327,10.654,8.524,20.45,8.524,20.45s-13.441,1.351-13.933,5.613c-.273,2.359.328,4.206,6.982,4.206,10.722,0,22.528.73,24.163-3.167C75.149,444.417,73.363,436.549,70.1,430.612Z" transform="translate(-39.684 -347.57)" fill="#9c6a1f"/>
            <path id="Path_2154" data-name="Path 2154" d="M102.365,430.612c3.525-6.411,14.318-17.235,22.636-8.652,10.327,10.654-8.524,20.45-8.524,20.45s13.442,1.351,13.934,5.613c.272,2.359-.328,4.206-6.982,4.206-10.722,0-22.528.73-24.163-3.167C97.317,444.417,99.1,436.549,102.365,430.612Z" transform="translate(-47.911 -347.57)" fill="#9c6a1f"/>
            <g id="Group_2391" data-name="Group 2391" transform="translate(15.674 31.761)">
              <path id="Path_2155" data-name="Path 2155" d="M110.777,419.81c0,19.827-11.9,24.588-26.57,24.588s-26.569-4.762-26.569-24.588S75.7,372.6,84.206,372.6C92.09,372.6,110.777,399.984,110.777,419.81Z" transform="translate(-57.637 -372.601)" fill="#b87c25"/>
            </g>
            <g id="Group_2392" data-name="Group 2392" transform="translate(22.887 35.039)">
              <path id="Path_2156" data-name="Path 2156" d="M106.106,421.492c0,18.921-8.96,23.466-20.013,23.466S66.08,440.414,66.08,421.492s8.96-45.053,20.013-45.053S106.106,402.571,106.106,421.492Z" transform="translate(-66.08 -376.439)" fill="#fff"/>
            </g>
            <path id="Path_2157" data-name="Path 2157" d="M86.665,372.6c-7.355,0-11.907,3.306-16.586,13.169,5.275,6.526,8.7,11.146,16.611,11.146,7.733,0,10.819-4.426,16.173-11.146C98.2,376.143,93.9,372.6,86.665,372.6Z" transform="translate(-43.776 -340.84)" fill="#f0e6d8"/>
            <path id="Path_2158" data-name="Path 2158" d="M93.882,438.746c-4.873,8.534-.083,9.621,4.024,9.621,6.61,0,9.98.816,12.946-11.147,6.287-25.368-4.559-56.625-10.1-54.12C98.2,384.112,104.532,422.38,93.882,438.746Z" transform="translate(-46.945 -342.35)" fill="#d18e2a"/>
            <path id="Path_2159" data-name="Path 2159" d="M80.828,438.746c4.873,8.534.083,9.621-4.024,9.621-6.61,0-9.98.816-12.946-11.147-6.287-25.368,4.559-56.625,10.1-54.12C76.507,384.112,70.178,422.38,80.828,438.746Z" transform="translate(-42.592 -342.35)" fill="#d18e2a"/>
            <g id="Group_2397" data-name="Group 2397" transform="translate(9.203)">
              <g id="Group_2394" data-name="Group 2394">
                <path id="Path_2160" data-name="Path 2160" d="M113.326,363.239C110.943,377.177,95.52,390.7,81.61,388.327c-14.528-2.483-23.964-20.262-21.581-34.2s15.492-18.791,30.209-16.275S115.709,349.3,113.326,363.239Z" transform="translate(-51.461 -335.684)" fill="#d18e2a"/>
                <g id="Group_2393" data-name="Group 2393" transform="translate(18.312 1.538)">
                  <path id="Path_2161" data-name="Path 2161" d="M91.964,337.853c-7.7-1.317-14.951-.592-20.466,2.376a26.891,26.891,0,0,1,9.388,7.063c5.627,6.644,3.176,20.332,3.176,20.332l2.369,1.708,2.8-.824s2.236-13.726,9.751-18.123a26.933,26.933,0,0,1,11.431-3.567C106.194,342.229,99.628,339.164,91.964,337.853Z" transform="translate(-71.498 -337.223)" fill="#9c6a1f"/>
                </g>
                <path id="Path_2162" data-name="Path 2162" d="M79.285,337.113s-26.05-6.984-28.683,7.439c-2.671,14.635,5.228,24.851,9.256,14.313C66.541,341.382,79.285,337.113,79.285,337.113Z" transform="translate(-50.062 -335.422)" fill="#82581a"/>
                <path id="Path_2163" data-name="Path 2163" d="M106.191,341.149s26.891,2.066,24.582,16.545c-2.342,14.69-13.186,21.7-13.485,10.425C116.792,349.409,106.191,341.149,106.191,341.149Z" transform="translate(-58.242 -336.257)" fill="#82581a"/>
                <path id="Path_2164" data-name="Path 2164" d="M93.1,374.7a4.776,4.776,0,0,1-9.347-1.6c.391-2.289,2.5-2.042,5.084-1.6S93.491,372.407,93.1,374.7Z" transform="translate(-54.964 -340.637)" fill="#523112"/>
                <path id="Path_2165" data-name="Path 2165" d="M94.061,382.247a.655.655,0,0,0-.755.538,3.3,3.3,0,0,1-1.641,2.646c-1.695.85-4.218-.07-5.218-.5l1.725-10.089a.656.656,0,0,0-1.292-.221L85.153,384.71c-1.326.1-3.865,0-5.086-1.261a3.3,3.3,0,0,1-.671-3.041.656.656,0,0,0-.534-.759h0a.654.654,0,0,0-.756.534,4.568,4.568,0,0,0,1.019,4.177,5.872,5.872,0,0,0,3.273,1.533,12.32,12.32,0,0,0,3.2.09,12.289,12.289,0,0,0,3.052.979,5.87,5.87,0,0,0,3.6-.358A4.57,4.57,0,0,0,94.6,383,.651.651,0,0,0,94.061,382.247Z" transform="translate(-54.133 -341.055)" fill="#523112"/>
              </g>
              <g id="Group_2395" data-name="Group 2395" transform="translate(19.098 22.621)">
                <path id="Path_2166" data-name="Path 2166" d="M72.828,366.3a.493.493,0,0,0,.569-.4,3.617,3.617,0,0,1,7.131,1.219.493.493,0,0,0,.972.167,4.6,4.6,0,0,0-9.076-1.552A.494.494,0,0,0,72.828,366.3Z" transform="translate(-72.418 -361.903)" fill="#523112"/>
              </g>
              <g id="Group_2396" data-name="Group 2396" transform="translate(40.588 26.295)">
                <path id="Path_2167" data-name="Path 2167" d="M97.984,370.6a.493.493,0,0,0,.569-.4,3.617,3.617,0,0,1,7.131,1.219.493.493,0,1,0,.972.167,4.6,4.6,0,0,0-9.075-1.551A.493.493,0,0,0,97.984,370.6Z" transform="translate(-97.574 -366.203)" fill="#523112"/>
              </g>
              <path id="Path_2168" data-name="Path 2168" d="M76.648,374.4c-.214,1.249-2.231,1.946-4.506,1.557s-3.948-1.717-3.734-2.967,2.231-1.946,4.507-1.557S76.862,373.149,76.648,374.4Z" transform="translate(-52.733 -340.654)" fill="#f5bb62"/>
              <path id="Path_2169" data-name="Path 2169" d="M107.415,379.658c-.214,1.25-2.231,1.947-4.507,1.558s-3.947-1.717-3.733-2.967,2.231-1.947,4.507-1.557S107.629,378.409,107.415,379.658Z" transform="translate(-57.216 -341.421)" fill="#f5bb62"/>
            </g>
          </g>
        </g>
        <g id="Group_2412" data-name="Group 2412" transform="translate(0 0.024)">
          <path id="Path_2193" data-name="Path 2193" d="M227.314,347.48c-1.621-1.03-3.123-1.1-5.459.3.278-2.711-.424-4.041-2.045-5.071-2.6-1.65-5.483-.573-7.133,2.023-2.52,3.967-.344,9.269,1.289,15.462,6.3-1.151,12.025-1.433,14.546-5.4C230.162,352.2,229.911,349.13,227.314,347.48Z" transform="translate(-45.67 -303.211)" fill="#ff006e"/>
          <g id="Group_2411" data-name="Group 2411" transform="translate(27.999 0)">
            <path id="Path_2194" data-name="Path 2194" d="M189.26,300.135c-1.345.538-2.051,1.427-2.223,3.474-1.536-1.365-2.659-1.523-4-.985-2.154.861-2.769,3.1-1.908,5.256,1.316,3.292,5.519,4.3,10.03,6.03,2.074-4.364,4.426-7.99,3.11-11.281C193.4,300.475,191.415,299.274,189.26,300.135Z" transform="translate(-69.183 -297.08)" fill="#ff006e"/>
            <path id="Path_2253" data-name="Path 2253" d="M8.511.281C7.165.819,6.459,1.707,6.288,3.755c-1.536-1.365-2.659-1.523-4-.985C.128,3.631-.486,5.872.375,8.026c1.316,3.292,5.519,4.3,10.03,6.03,2.074-4.364,4.426-7.99,3.11-11.281C12.655.621,10.665-.58,8.511.281Z" transform="matrix(0.616, 0.788, -0.788, 0.616, 74.41, 0)" fill="#ff006e"/>
            <path id="Path_2254" data-name="Path 2254" d="M8.511.281C7.165.819,6.459,1.707,6.288,3.755c-1.536-1.365-2.659-1.523-4-.985C.128,3.631-.486,5.872.375,8.026c1.316,3.292,5.519,4.3,10.03,6.03,2.074-4.364,4.426-7.99,3.11-11.281C12.655.621,10.665-.58,8.511.281Z" transform="matrix(0.616, 0.788, -0.788, 0.616, 99.814, 19.961)" fill="#ff006e"/>
            <path id="Path_2255" data-name="Path 2255" d="M6.381.211c-1.009.4-1.538,1.07-1.667,2.6-1.152-1.024-1.994-1.142-3-.738A2.845,2.845,0,0,0,.281,6.018C1.268,8.487,4.42,9.241,7.8,10.54c1.555-3.272,3.319-5.991,2.332-8.459A2.845,2.845,0,0,0,6.381.211Z" transform="matrix(0.966, -0.259, 0.259, 0.966, 24.697, 22.958)" fill="#ff006e"/>
            <path id="Path_2195" data-name="Path 2195" d="M55.537,300.135c1.345.538,2.05,1.427,2.222,3.474,1.537-1.365,2.66-1.523,4-.985,2.155.861,2.77,3.1,1.908,5.256-1.316,3.292-5.519,4.3-10.03,6.03-2.074-4.364-4.426-7.99-3.111-11.281C51.393,300.475,53.383,299.274,55.537,300.135Z" transform="translate(-50.151 -297.08)" fill="#ff006e"/>
          </g>
          <path id="Path_2196" data-name="Path 2196" d="M19.613,347.48c1.621-1.03,3.123-1.1,5.46.3-.278-2.711.424-4.041,2.044-5.071,2.6-1.65,5.484-.573,7.133,2.023C36.771,348.7,34.6,354,32.962,360.2c-6.3-1.151-12.026-1.433-14.546-5.4C16.766,352.2,17.017,349.13,19.613,347.48Z" transform="translate(-17.376 -303.211)" fill="#ff006e"/>
        </g>
        <g id="Group_2419" data-name="Group 2419" transform="translate(17.97)">
          <g id="Group_2413" data-name="Group 2413" transform="translate(47.681 10.628)">
            <path id="Path_2197" data-name="Path 2197" d="M96.973,314.706c3.659,0,3.665-5.686,0-5.686s-3.665,5.686,0,5.686Z" transform="translate(-94.226 -309.02)" fill="#3d6bff"/>
          </g>
          <g id="Group_2414" data-name="Group 2414" transform="translate(0 21.75)">
            <path id="Path_2198" data-name="Path 2198" d="M40.658,328.079a3.734,3.734,0,0,0,1.01.142,2.967,2.967,0,0,0,2.925-2.925,3.727,3.727,0,0,0-.142-1.009,3.084,3.084,0,1,0-3.793,3.792Z" transform="translate(-38.411 -322.039)" fill="#3d6bff"/>
          </g>
          <g id="Group_2415" data-name="Group 2415" transform="translate(82.996 26.698)">
            <path id="Path_2199" data-name="Path 2199" d="M138.853,334.64c4.38,0,4.388-6.808,0-6.808s-4.388,6.808,0,6.808Z" transform="translate(-135.565 -327.832)" fill="#3d6bff"/>
          </g>
          <g id="Group_2416" data-name="Group 2416" transform="translate(108.1)">
            <path id="Path_2200" data-name="Path 2200" d="M164.994,296.664a.043.043,0,0,0,0-.085.043.043,0,0,0,0,.085Z" transform="translate(-164.952 -296.579)" fill="#fff"/>
          </g>
          <g id="Group_2417" data-name="Group 2417" transform="translate(141.106 24.657)">
            <path id="Path_2201" data-name="Path 2201" d="M206.218,330.888c3.5,0,3.51-5.446,0-5.446s-3.509,5.446,0,5.446Z" transform="translate(-203.588 -325.442)" fill="#3d6bff"/>
          </g>
          <g id="Group_2418" data-name="Group 2418" transform="translate(97.557 9.827)">
            <path id="Path_2202" data-name="Path 2202" d="M156.131,315.37c4.69,0,4.7-7.288,0-7.288s-4.7,7.288,0,7.288Z" transform="translate(-152.611 -308.082)" fill="#3d6bff"/>
          </g>
        </g>
      </g>
    </g>
  </g>
</svg>
