<svg xmlns="http://www.w3.org/2000/svg" width="15.998" height="17.415" viewBox="0 0 15.998 17.415">
  <path id="Path_250" data-name="Path 250" d="M516.715,426.333a7.861,7.861,0,0,0-6.33,12.523l-1.805,4.892,4.344-2.665a7.862,7.862,0,1,0,3.792-14.75Zm.43,4.308c.226-.794.819-1.3,1.324-1.132s.732.95.506,1.745-.818,1.3-1.324,1.132S516.919,431.436,517.145,430.641Zm-2.459-1.132c.506-.169,1.1.338,1.324,1.132s0,1.576-.506,1.745-1.1-.338-1.324-1.132S514.181,429.679,514.686,429.509Zm-2.733,3.815c-.294-.768-.136-1.569.353-1.789s1.122.224,1.416.992.136,1.569-.353,1.789S512.247,434.091,511.953,433.324Zm6.831,4.89c-.64.382-1.332-.091-2.207-.091s-1.566.473-2.207.091c-1.041-.621-1.194-2.283-.342-3.712a3.326,3.326,0,0,1,2.3-1.68h0l.081-.008.053,0,.054,0h.118l.054,0,.053,0,.081.008h0a3.325,3.325,0,0,1,2.3,1.68C519.979,435.931,519.826,437.593,518.785,438.214Zm2.417-4.89c-.293.768-.928,1.212-1.416.992s-.646-1.021-.353-1.789.928-1.212,1.417-.992S521.5,432.556,521.2,433.324Z" transform="translate(-508.579 -426.333)"/>
</svg>
