<svg xmlns="http://www.w3.org/2000/svg" width="13.644" height="16.792" viewBox="0 0 13.644 16.792">
  <g id="Group_2331" data-name="Group 2331" transform="translate(140 176)">
    <path id="Path_2133" data-name="Path 2133" d="M-127.668-173.9h-2.886v-.525A1.574,1.574,0,0,0-132.129-176h-2.1a1.574,1.574,0,0,0-1.574,1.574v.525h-2.886A1.312,1.312,0,0,0-140-172.589v1.049a.525.525,0,0,0,.525.525h12.594a.525.525,0,0,0,.525-.525v-1.049a1.312,1.312,0,0,0-1.312-1.312Zm-7.084-.525a.526.526,0,0,1,.525-.525h2.1a.526.526,0,0,1,.525.525v.525h-3.149Zm0,0"/>
    <path id="Path_2134" data-name="Path 2134" d="M-120.813-38a.164.164,0,0,0-.164.172l.433,9.086a1.572,1.572,0,0,0,1.572,1.5H-111a1.572,1.572,0,0,0,1.572-1.5l.433-9.086a.164.164,0,0,0-.164-.172Zm7.925,1.312a.525.525,0,0,1,.525-.525.525.525,0,0,1,.525.525v6.822a.525.525,0,0,1-.525.525.525.525,0,0,1-.525-.525Zm-2.624,0a.525.525,0,0,1,.525-.525.525.525,0,0,1,.525.525v6.822a.525.525,0,0,1-.525.525.525.525,0,0,1-.525-.525Zm-2.624,0a.525.525,0,0,1,.525-.525.525.525,0,0,1,.525.525v6.822a.525.525,0,0,1-.525.525.525.525,0,0,1-.525-.525Zm0,0" transform="translate(-18.191 -131.965)"/>
  </g>
</svg>
