<svg xmlns="http://www.w3.org/2000/svg" width="14.872" height="15.584" viewBox="0 0 14.872 15.584">
  <g id="Group_126" data-name="Group 126" transform="translate(0 0)">
    <path id="Path_138" data-name="Path 138" d="M384.4,373.593c0,2.942,3.673,6.011,5.326,6.011,1.728,0,5.326-3.07,5.326-6.011s-2.487-4.072-5.326-2.729C387.2,369.29,384.4,370.651,384.4,373.593Z" transform="translate(-382.295 -364.02)" />
    <g id="Group_126-2" data-name="Group 126" transform="translate(0)">
      <path id="Path_139" data-name="Path 139" d="M377.606,356.033c.455,1.034.324,2.093-.292,2.364s-1.486-.346-1.941-1.38-.325-2.093.292-2.365S377.15,355,377.606,356.033Z" transform="translate(-375.101 -351.948)" />
      <path id="Path_140" data-name="Path 140" d="M394.391,345.454c.111,1.457-.563,2.7-1.5,2.768s-1.8-1.051-1.908-2.508.564-2.7,1.505-2.768S394.28,344,394.391,345.454Z" transform="translate(-387.369 -342.943)" />
    </g>
    <g id="Group_127" data-name="Group 127" transform="translate(7.838)">
      <path id="Path_141" data-name="Path 141" d="M428.709,356.033c-.455,1.034-.325,2.093.292,2.364s1.486-.346,1.941-1.38.325-2.093-.292-2.365S429.165,355,428.709,356.033Z" transform="translate(-424.18 -351.948)" />
      <path id="Path_142" data-name="Path 142" d="M409.674,345.454c-.111,1.457.563,2.7,1.505,2.768s1.8-1.051,1.907-2.508-.564-2.7-1.505-2.768S409.786,344,409.674,345.454Z" transform="translate(-409.662 -342.943)" />
    </g>
  </g>
</svg>
