<svg xmlns="http://www.w3.org/2000/svg" width="12.18" height="10.646" viewBox="0 0 12.18 10.646">
  <g id="Group_636" data-name="Group 636" transform="translate(-41 -197.89)">
    <path id="Path_269" data-name="Path 269" d="M112.07,381.2a2.966,2.966,0,0,0-4.994,0l-1.321,2.06A1.877,1.877,0,0,0,108.092,386l.025-.011a3.69,3.69,0,0,1,2.938.011,1.867,1.867,0,0,0,.753.159,1.893,1.893,0,0,0,.42-.048,1.877,1.877,0,0,0,1.163-2.843Zm0,0" transform="translate(-62.925 -177.62)" fill="#3d6bff"/>
    <path id="Path_270" data-name="Path 270" d="M43.186,300.124a1.44,1.44,0,0,0,.84-.892,1.913,1.913,0,0,0-.869-2.256,1.44,1.44,0,0,0-1.221-.1,1.649,1.649,0,0,0-.807,2.174,1.739,1.739,0,0,0,1.564,1.163,1.364,1.364,0,0,0,.492-.091Zm0,0" transform="translate(0 -96.542)" fill="#3d6bff"/>
    <path id="Path_271" data-name="Path 271" d="M167.2,201.967a2.056,2.056,0,1,0-1.789-2.038,1.928,1.928,0,0,0,1.789,2.038Zm0,0" transform="translate(-121.454 0)" fill="#3d6bff"/>
    <path id="Path_272" data-name="Path 272" d="M326.272,241.763h0a1.459,1.459,0,0,0,.461.074,1.854,1.854,0,0,0,1.688-1.328,2,2,0,0,0-.029-1.379,1.512,1.512,0,0,0-2.242-.745,2,2,0,0,0-.848,1.088,1.768,1.768,0,0,0,.97,2.291Zm0,0" transform="translate(-277.434 -39.295)" fill="#3d6bff"/>
    <path id="Path_273" data-name="Path 273" d="M420.38,369.215h0a1.753,1.753,0,0,0-2.07,2.8,1.4,1.4,0,0,0,.84.271,1.809,1.809,0,0,0,1.429-.757,1.649,1.649,0,0,0-.2-2.311Zm0,0" transform="translate(-367.773 -166.985)" fill="#3d6bff"/>
  </g>
</svg>
