<svg xmlns="http://www.w3.org/2000/svg" width="15.042" height="16.966" viewBox="0 0 15.042 16.966">
  <g id="Group_2610" data-name="Group 2610" transform="translate(-96.653 -394)">
    <path id="Path_2416" data-name="Path 2416" d="M111.831,409.755l-4.019-.592-1.8-3.625a.37.37,0,0,0-.641,0l-1.8,3.625-4.019.592a.37.37,0,0,0-.2.641l2.91,2.811-.69,3.994a.361.361,0,0,0,.518.395l3.6-1.874,3.6,1.874.148.049a.3.3,0,0,0,.222-.074.345.345,0,0,0,.148-.37l-.69-3.994,2.91-2.811a.37.37,0,0,0-.2-.641Z" transform="translate(-1.517 -6.68)" fill="#3d6bff"/>
    <path id="Path_2417" data-name="Path 2417" d="M114.1,397.206a.37.37,0,0,0,.37-.37V394.37a.37.37,0,1,0-.74,0v2.466A.37.37,0,0,0,114.1,397.206Z" transform="translate(-10.047)" fill="#3d6bff"/>
    <path id="Path_2418" data-name="Path 2418" d="M129.879,400.2a.394.394,0,0,0-.518.074l-1.48,1.973a.37.37,0,0,0,.074.518.393.393,0,0,0,.222.074.345.345,0,0,0,.3-.148l1.48-1.973A.37.37,0,0,0,129.879,400.2Z" transform="translate(-18.332 -3.608)" fill="#3d6bff"/>
    <path id="Path_2419" data-name="Path 2419" d="M98.5,402.836a.393.393,0,0,0,.222-.074.37.37,0,0,0,.074-.518l-1.48-1.973a.394.394,0,0,0-.518-.074.37.37,0,0,0-.074.518h0l1.48,1.973A.345.345,0,0,0,98.5,402.836Z" transform="translate(0 -3.608)" fill="#3d6bff"/>
  </g>
</svg>
