<svg xmlns="http://www.w3.org/2000/svg" width="19.659" height="17.138" viewBox="0 0 19.659 17.138">
  <g id="Group_3011" data-name="Group 3011" transform="translate(0 -418)">
    <g id="Group_3010" data-name="Group 3010" transform="translate(0 418)">
      <g id="Group_3005" data-name="Group 3005" transform="translate(0 0.245)">
        <path id="Path_3164" data-name="Path 3164" d="M19.227,420.073a3.376,3.376,0,0,0-4.593-1.291l-6.341,3.56.729,1.3,6.342-3.56a1.883,1.883,0,0,1,1.842,3.284l-5.749,3.226a3.351,3.351,0,0,0-.948-1.858,3.453,3.453,0,0,0-3.53-.788l-.519.187.5,1.4.521-.186a1.923,1.923,0,0,1,1.97.439,1.879,1.879,0,0,1,.532,1.056l-.072-.018a1.866,1.866,0,0,1-1.133-.893l-.271-.479-1.3.731.273.479a3.351,3.351,0,0,0,2.03,1.6l.091.024a1.955,1.955,0,0,1-.148.166L4.706,433.2a1.883,1.883,0,0,1-2.663-2.663l4.127-4.127L5.115,425.36.989,429.487a3.373,3.373,0,1,0,4.77,4.771l4.753-4.752a3.386,3.386,0,0,0,.783-1.234,3.355,3.355,0,0,0,.781-.316l5.861-3.289a3.378,3.378,0,0,0,1.291-4.593Z" transform="translate(0 -418.352)" fill="#3d6bff"/>
      </g>
      <g id="Group_3007" data-name="Group 3007" transform="translate(6.079)">
        <g id="Group_3006" data-name="Group 3006">
          <path id="Path_3165" data-name="Path 3165" d="M9.856,422.633a.346.346,0,0,0,.278-.4l-.711-3.946a.346.346,0,1,0-.68.123l.712,3.946A.346.346,0,0,0,9.856,422.633Z" transform="translate(-8.737 -418)" fill="#3d6bff"/>
        </g>
      </g>
      <g id="Group_3009" data-name="Group 3009" transform="translate(1.404 5.313)">
        <g id="Group_3008" data-name="Group 3008">
          <path id="Path_3166" data-name="Path 3166" d="M2.424,427.035l3.946-.712a.346.346,0,0,0-.122-.681l-3.946.712a.346.346,0,0,0,.122.68Z" transform="translate(-2.018 -425.636)" fill="#3d6bff"/>
        </g>
      </g>
    </g>
  </g>
</svg>
