<svg id="Group_596" data-name="Group 596" xmlns="http://www.w3.org/2000/svg" width="22.685" height="17.227" viewBox="0 0 22.685 17.227">
  <path id="Path_76" data-name="Path 76" d="M65.686,37.649c-.147-.09-.293-.172-.433-.265a9.061,9.061,0,0,1-1.973-1.8,18.124,18.124,0,0,1-2.357-3.516,1.008,1.008,0,0,1-.179-.464c.015-.139.177-.264.279-.391.409-.508.822-1.012,1.228-1.521.45-.565.929-1.111,1.333-1.707.535-.792,1.206-1.483,1.668-2.328a5.484,5.484,0,0,1,1.087-1.348,6.594,6.594,0,0,1,2.831-1.573c.035-.009.071-.014.148-.029a4.851,4.851,0,0,0-1.5,2.8c.2.026.392.043.58.075A4.417,4.417,0,0,1,71.159,27.2c.244.3.481.605.746.885a2.517,2.517,0,0,0,1.7.768c.707.051,1.418.054,2.127.076a.267.267,0,0,0,.113-.016,2.425,2.425,0,0,1,1.6-.044c.185.045.212.1.2.295a.654.654,0,0,1-.207.478.556.556,0,0,0-.08.119c-.236.351-.448.72-.715,1.045a2.59,2.59,0,0,1-.679.572,3.974,3.974,0,0,1-.777.283c-.169.056-.34.107-.513.147-.432.1-.866.188-1.3.286a1.161,1.161,0,0,0-.271.1c-.095.049-.107.129-.017.193.11.078.229.142.345.21.32.188.647.365.959.565a1.4,1.4,0,0,1,.519.573c.186.389.051.607-.376.589A2.085,2.085,0,0,1,74,34.238a5.9,5.9,0,0,0-2.505-.2,8.978,8.978,0,0,0-3.235.982,5.546,5.546,0,0,0-1.537,1.327c-.332.382-.633.79-.948,1.187C65.747,37.566,65.721,37.6,65.686,37.649Zm4-9.643,0,.011a.512.512,0,0,0-.157.014c-.093.039-.211.073-.261.147a.239.239,0,0,0,.088.309,2.189,2.189,0,0,0,.5.325.461.461,0,0,0,.6-.3.278.278,0,0,0-.2-.4C70.064,28.059,69.871,28.038,69.682,28.006Z" transform="translate(-58.912 -22.709)" />
  <path id="Path_77" data-name="Path 77" d="M-1,329.793c.02.017.08.043.1.087a14.261,14.261,0,0,0,1.763,2.984,12.628,12.628,0,0,0,2.252,2.479,5.878,5.878,0,0,0,1.667,1c.1.036.088.1.076.17a2.238,2.238,0,0,1-1.041,1.534.3.3,0,0,1-.4,0,13.517,13.517,0,0,1-3.416-3.286,19.951,19.951,0,0,1-2.4-4.184.187.187,0,0,1,.061-.257A2.313,2.313,0,0,1-1,329.793Z" transform="translate(2.421 -320.896)" />
  <path id="Path_78" data-name="Path 78" d="M319.339,35.667a4.842,4.842,0,0,0-1.353,2.232l-.7-.127c.014-.059.024-.115.039-.169a4.346,4.346,0,0,1,.656-1.394.475.475,0,0,1,.193-.162c.375-.15.754-.288,1.132-.43Z" transform="translate(-308.023 -35.241)" />
  <path id="Path_79" data-name="Path 79" d="M716.562,269.778l1.6-.927a1.272,1.272,0,0,1,.156,1.219.124.124,0,0,1-.1.054C717.68,270.015,717.144,269.9,716.562,269.778Z" transform="translate(-695.73 -261.719)" />
  <path id="Path_80" data-name="Path 80" d="M718.042,400.193a1.328,1.328,0,0,1-.529,1.08.156.156,0,0,1-.144.011c-.4-.375-.8-.756-1.191-1.136l.04-.06Z" transform="translate(-695.357 -389.154)" />
  <path id="Path_81" data-name="Path 81" d="M656.914,471.462a1.333,1.333,0,0,1-1.012.409c-.108,0-.158-.04-.164-.161-.025-.524-.061-1.047-.094-1.593Z" transform="translate(-636.577 -457.153)" />
  <path id="Path_82" data-name="Path 82" d="M354.176,205.524c.19.033.383.053.568.1a.278.278,0,0,1,.2.4.461.461,0,0,1-.6.3,2.19,2.19,0,0,1-.5-.325.238.238,0,0,1-.087-.309c.049-.075.168-.108.261-.147a.511.511,0,0,1,.157-.014Z" transform="translate(-343.406 -200.227)"/>
</svg>
