<svg xmlns="http://www.w3.org/2000/svg" width="24.824" height="16.436" viewBox="0 0 24.824 16.436"><defs></defs><g transform="translate(-87.948 -144.72)"><path class="a" d="M145.666,215.69c.943,0,1.678-1.055,1.678-2.405s-.739-2.405-1.678-2.405-1.666,1.055-1.666,2.4S144.727,215.69,145.666,215.69Z" transform="translate(-51.912 -61.273)"/><path class="a" d="M91.249,244.7c.591-.591.393-1.693-.437-2.523a2.639,2.639,0,0,0-1.291-.736,1.306,1.306,0,0,0-1.232.3c-.591.591-.393,1.693.437,2.523a2.432,2.432,0,0,0,1.649.774A1.209,1.209,0,0,0,91.249,244.7Z" transform="translate(0 -89.533)"/><path class="a" d="M196.678,242.109c-.83.83-1.022,1.938-.437,2.523a1.209,1.209,0,0,0,.886.337,2.431,2.431,0,0,0,1.64-.792c.83-.83,1.022-1.938.437-2.523S197.511,241.273,196.678,242.109Z" transform="translate(-99.981 -89.465)"/><path class="a" d="M119.324,285.84a3.914,3.914,0,0,0-3.767,3.546,2.089,2.089,0,0,0,.919,1.761,6.121,6.121,0,0,0,5.708,0,2.089,2.089,0,0,0,.913-1.752A3.916,3.916,0,0,0,119.324,285.84Z" transform="translate(-25.57 -130.696)"/><path class="a" d="M324.4,149.53c.943,0,1.678-1.055,1.678-2.405s-.739-2.405-1.678-2.405-1.678,1.055-1.678,2.405S323.456,149.53,324.4,149.53Z" transform="translate(-217.431)"/><path class="a" d="M377.98,175.728c-.591-.591-1.693-.393-2.523.437a2.636,2.636,0,0,0-.736,1.291,1.306,1.306,0,0,0,.3,1.232,1.2,1.2,0,0,0,.872.337,1.776,1.776,0,0,0,.36-.047,2.639,2.639,0,0,0,1.291-.736c.833-.83,1.025-1.923.44-2.514Z" transform="translate(-265.547 -28.402)"/><path class="a" d="M270.057,178.658c.591-.591.393-1.693-.437-2.523s-1.938-1.022-2.523-.431a1.306,1.306,0,0,0-.3,1.232,2.639,2.639,0,0,0,.736,1.291,2.432,2.432,0,0,0,1.649.774,1.209,1.209,0,0,0,.872-.343Z" transform="translate(-165.599 -28.377)"/><path class="a" d="M298.205,219.76a3.914,3.914,0,0,0-3.767,3.546,2.089,2.089,0,0,0,.913,1.752,6.121,6.121,0,0,0,5.708,0,2.089,2.089,0,0,0,.91-1.734,3.91,3.91,0,0,0-3.764-3.563Z" transform="translate(-191.238 -69.497)"/></g></svg>