<svg xmlns="http://www.w3.org/2000/svg" width="34.483" height="26.91" viewBox="0 0 34.483 26.91">
  <g id="Group_185" data-name="Group 185" transform="translate(0 0)">
    <g id="Group_181" data-name="Group 181" transform="translate(0 0)">
      <path id="Path_221" data-name="Path 221" d="M175.815,47.332c.627.1,1.291.187,1.949.3a14.149,14.149,0,0,1,3.386,1.095,12.547,12.547,0,0,1,2.46,1.439,10.234,10.234,0,0,1,1.467,1.306A4.593,4.593,0,0,1,186.2,53.66a2.774,2.774,0,0,1-.311,1.839,14.507,14.507,0,0,1-1.584,2.237,9.74,9.74,0,0,0-1.471,2.281c-.169.414-.292.848-.479,1.253a3.746,3.746,0,0,1-.527.825.475.475,0,0,1-.794-.008,3.512,3.512,0,0,1-.522-.93,22.856,22.856,0,0,1-.818-3.589c-.149-.8-.324-1.6-.5-2.4-.081-.373-.189-.741-.276-1.113a6.116,6.116,0,0,0-.162-.751c-.167-.443-.362-.876-.565-1.3a6.531,6.531,0,0,0-2.481-2.811,4.244,4.244,0,0,0-1.544-.618c-.331-.055-.408-.227-.262-.543a.91.91,0,0,1,.683-.5C174.977,47.442,175.372,47.4,175.815,47.332Z" transform="translate(-151.764 -47.332)" fill="#ff006e"/>
      <path id="Path_222" data-name="Path 222" d="M52.484,47.332c-.627.1-1.29.187-1.949.3a14.152,14.152,0,0,0-3.386,1.095,12.558,12.558,0,0,0-2.46,1.439,10.236,10.236,0,0,0-1.467,1.306A4.591,4.591,0,0,0,42.1,53.66a2.775,2.775,0,0,0,.311,1.839,14.516,14.516,0,0,0,1.584,2.237,9.741,9.741,0,0,1,1.471,2.281c.169.414.292.848.479,1.253a3.746,3.746,0,0,0,.527.825.475.475,0,0,0,.794-.008,3.515,3.515,0,0,0,.522-.93,22.856,22.856,0,0,0,.818-3.589c.149-.8.324-1.6.5-2.4.081-.373.188-.741.276-1.113a6.11,6.11,0,0,1,.162-.751c.167-.443.362-.876.565-1.3a6.531,6.531,0,0,1,2.481-2.811,4.245,4.245,0,0,1,1.544-.618c.332-.055.408-.227.263-.543a.911.911,0,0,0-.684-.5C53.322,47.442,52.926,47.4,52.484,47.332Z" transform="translate(-42.051 -47.332)" fill="#ff006e"/>
      <path id="Path_223" data-name="Path 223" d="M106.97,112.478v.278c0,.879,0,1.759,0,2.638a3.735,3.735,0,0,1-7.3,1.029,4.284,4.284,0,0,1-.162-1.2c-.024-.827-.007-1.655-.007-2.483v-.266a10.577,10.577,0,0,1-1.122-.006,4.794,4.794,0,0,1-3.653-2.312,3.382,3.382,0,0,1-.289-.565.607.607,0,0,1,.288-.77.615.615,0,0,1,.812.276,3.937,3.937,0,0,0,1.45,1.636,3.49,3.49,0,0,0,2.457.493,3.672,3.672,0,0,0,2.823-2.176,3.822,3.822,0,0,0,.353-1.783.368.368,0,0,0-.122-.237c-.817-.7-1.636-1.4-2.464-2.084a1.236,1.236,0,0,1-.117-1.909,2.279,2.279,0,0,1,1.781-.757c1.064.026,2.128.018,3.192,0a2.19,2.19,0,0,1,1.794.912,1.194,1.194,0,0,1-.174,1.683q-1.249,1.073-2.512,2.13a.52.52,0,0,1-.24.091c-.257.044-.367.177-.327.425.007.041.048.076.073.114a.509.509,0,0,0,.078-.107c.016-.04,0-.1.019-.128a.268.268,0,0,1,.152-.093c.027,0,.1.081.091.117-.03.2.159.418-.059.6a.09.09,0,0,0,0,.083c.293.179.234.518.345.776a3.733,3.733,0,0,0,2.458,2.253,3.6,3.6,0,0,0,3.957-1.391,3.5,3.5,0,0,0,.347-.583.622.622,0,1,1,1.086.585,4.8,4.8,0,0,1-3.182,2.592,9.96,9.96,0,0,1-1.532.154A2.232,2.232,0,0,1,106.97,112.478Zm-3.206-1.735v.22q0,2.261,0,4.522a.561.561,0,0,1-.243.511.485.485,0,0,1-.543.018.545.545,0,0,1-.272-.517q0-2.272,0-4.544c0-.076-.007-.153-.012-.273a4.01,4.01,0,0,1-1.6,1.276.806.806,0,0,0-.579.966c.047.913-.012,1.834.062,2.744a2.62,2.62,0,0,0,2.332,2.312,2.707,2.707,0,0,0,3.033-2.651c.018-.975,0-1.95.007-2.926,0-.146-.068-.2-.185-.26a6.169,6.169,0,0,1-.905-.484C104.477,111.383,104.133,111.056,103.764,110.743Z" transform="translate(-86.175 -92.126)" fill="#ff006e"/>
      <path id="Path_226" data-name="Path 226" d="M108.385,123.859a.619.619,0,0,1,.64-.633.632.632,0,0,1,.63.648.625.625,0,0,1-.635.624A.617.617,0,0,1,108.385,123.859Z" transform="translate(-97.581 -109.201)" fill="#ff006e"/>
      <path id="Path_227" data-name="Path 227" d="M170.493,123.87a.635.635,0,0,1-1.27-.006.632.632,0,0,1,.641-.638A.619.619,0,0,1,170.493,123.87Z" transform="translate(-147.176 -109.201)" fill="#ff006e"/>
      <path id="Path_228" data-name="Path 228" d="M107.023,133.762a.666.666,0,0,1-.654.638.631.631,0,0,1-.631-.652.623.623,0,0,1,.634-.623A.652.652,0,0,1,107.023,133.762Z" transform="translate(-95.422 -117.271)" fill="#ff006e"/>
      <path id="Path_229" data-name="Path 229" d="M171.788,133.766a.655.655,0,0,1,.645-.644.625.625,0,0,1,.64.617.632.632,0,0,1-.625.658A.666.666,0,0,1,171.788,133.766Z" transform="translate(-149.267 -117.268)" fill="#ff006e"/>
      <path id="Path_230" data-name="Path 230" d="M117.655,132.059a.6.6,0,0,1-.62-.645.634.634,0,0,1,1.268.022A.613.613,0,0,1,117.655,132.059Z" transform="translate(-104.632 -115.369)" fill="#ff006e"/>
      <path id="Path_231" data-name="Path 231" d="M161.85,131.431a.6.6,0,0,1-.637.628.613.613,0,0,1-.631-.64.634.634,0,0,1,1.268.012Z" transform="translate(-140.132 -115.369)" fill="#ff006e"/>
      <path id="Path_233" data-name="Path 233" d="M141.47,126.669s-.466,1.337.922,3.214l-1.57-.248-.322-2.965Z" transform="translate(-123.761 -112.008)" fill="#ff006e"/>
    </g>
    <g id="Group_184" data-name="Group 184" transform="translate(8.559 4.859)">
      <g id="Group_175" data-name="Group 175">
        <path id="Path_216" data-name="Path 216" d="M52.756,71.831c-1.151-.055-1.428,1.2-1.428,1.2s-.277-1.251-1.428-1.2c0,0-1.605.111-1.384,2.037s2.812,3.248,2.812,3.248,2.59-1.322,2.812-3.248S52.756,71.831,52.756,71.831Z" transform="translate(-48.496 -71.829)" fill="#ff006e"/>
      </g>
      <g id="Group_183" data-name="Group 183" transform="translate(11.89)">
        <path id="Path_216-2" data-name="Path 216" d="M52.756,71.831c-1.151-.055-1.428,1.2-1.428,1.2s-.277-1.251-1.428-1.2c0,0-1.605.111-1.384,2.037s2.812,3.248,2.812,3.248,2.59-1.322,2.812-3.248S52.756,71.831,52.756,71.831Z" transform="translate(-48.496 -71.829)" fill="#ff006e"/>
      </g>
    </g>
  </g>
</svg>
