<svg xmlns="http://www.w3.org/2000/svg" width="40" height="40" viewBox="0 0 40 40"><defs></defs><g transform="translate(-77 -251)"><g transform="translate(88.546 265.51)"><path  d="M33.985,103.721a.615.615,0,0,0-.6-.027l-4.028,2.014v-1.464a1.844,1.844,0,0,0-1.844-1.844h-8.6a1.844,1.844,0,0,0-1.844,1.844v7.376a1.844,1.844,0,0,0,1.844,1.844h8.6a1.844,1.844,0,0,0,1.844-1.844v-1.464l4.028,2.017a.615.615,0,0,0,.889-.553v-7.376A.615.615,0,0,0,33.985,103.721ZM23.213,110.39a2.459,2.459,0,1,1,2.459-2.459A2.459,2.459,0,0,1,23.213,110.39Z" transform="translate(-17.067 -102.4)"/></g></g></svg>