<svg xmlns="http://www.w3.org/2000/svg" width="40" height="40" viewBox="0 0 40 40"><defs></defs><g transform="translate(-216 -257)"><g transform="translate(228.499 271.275)"><path  d="M30.116,85.333H18.633A1.566,1.566,0,0,0,17.067,86.9v7.308a1.566,1.566,0,0,0,1.566,1.566H30.116a1.566,1.566,0,0,0,1.566-1.566V86.9A1.566,1.566,0,0,0,30.116,85.333ZM18.633,86.377H30.116a.522.522,0,0,1,.522.522v4.482L27.354,88.1a.522.522,0,0,0-.738,0l-4.329,4.329-1.719-1.719a.522.522,0,0,0-.738,0l-1.719,1.719V86.9A.522.522,0,0,1,18.633,86.377Z" transform="translate(-17.067 -85.333)"/><circle  cx="1.566" cy="1.566" r="1.566" transform="translate(3.132 2.088)"/></g></g></svg>