<svg xmlns="http://www.w3.org/2000/svg" width="40" height="40" viewBox="0 0 40 40"><defs></defs><g transform="translate(-259 -257)"><g transform="translate(259 257)"></g><g transform="translate(274.568 269.79)"><path class="b" d="M173.781,232.245a4.669,4.669,0,0,0-3.968-2.355c-.07,0-.141,0-.212,0a4.669,4.669,0,0,0-3.968,2.355,4.791,4.791,0,0,0-.063,4.733l3.412,6.245,0,.008a.829.829,0,0,0,1.439,0l0-.008,3.412-6.245a4.791,4.791,0,0,0-.063-4.733Zm-4.074,3.879a1.935,1.935,0,1,1,1.935-1.935,1.937,1.937,0,0,1-1.935,1.935Zm0,0" transform="translate(-164.977 -229.889)"/></g></g></svg>