<svg xmlns="http://www.w3.org/2000/svg" xmlns:xlink="http://www.w3.org/1999/xlink" width="42" height="42" viewBox="0 0 42 42"><defs><clipPath id="a"><rect  width="21.494" height="21.494"/></clipPath></defs><g transform="translate(-270 -121)"><path style="fill:#fff;opacity:0.26;" d="M21,0A21,21,0,1,1,0,21,21,21,0,0,1,21,0Z" transform="translate(270 121)"/><g transform="translate(280.18 130.82)"><g transform="translate(0 0)"><g style="clip-path:url(#a);"><path style="fill:#fff;" d="M244.018,365.881a7.6,7.6,0,1,0-2.337,2.152l5.6,5.569a1.59,1.59,0,0,0,2.306-2.19l-.058-.057Zm-6.207.519a4.9,4.9,0,1,1,4.9-4.909,4.9,4.9,0,0,1-4.9,4.909Zm0,0" transform="translate(-229.303 -353.79)"/></g></g></g></g></svg>