<svg xmlns="http://www.w3.org/2000/svg" width="21.397" height="22.729" viewBox="0 0 21.397 22.729"><defs></defs><g transform="translate(-116 -229.89)"><path  d="M275.619,236.253a6.359,6.359,0,0,0-12.7-.472,9.106,9.106,0,0,1,7.9,6.835h4.8l-1.6-2.139a6.34,6.34,0,0,0,1.6-4.224Zm0,0" transform="translate(-138.222)"/><path  d="M124.469,351.146a7.777,7.777,0,0,0-6.509,12.908L116,366.668h7.772a7.777,7.777,0,0,0,.7-15.523Zm-4.936,5.626h4.239v1.414h-4.239Zm8.479,4.244h-8.479V359.6h8.479Zm0,0" transform="translate(0 -114.05)"/></g></svg>