<svg xmlns="http://www.w3.org/2000/svg" width="18.314" height="19.893" viewBox="0 0 18.314 19.893"><defs></defs><g transform="translate(0 0)"><path  d="M221.407,77.15a.778.778,0,0,0-1.149,0l-8.378,9.178a.779.779,0,0,0,.573,1.3h1.5l.656,8.438a.778.778,0,0,0,.775.718h10.888a.778.778,0,0,0,.776-.722l.616-8.436h1.549a.779.779,0,0,0,.573-1.3Zm3.222,18.015a.333.333,0,0,1-.333.333h-6.934a.333.333,0,0,1-.333-.333v-5.1a3.805,3.805,0,0,1,3.8-3.807h0a3.805,3.805,0,0,1,3.8,3.807v5.1Z" transform="translate(-211.674 -76.896)"/></g></svg>