<svg xmlns="http://www.w3.org/2000/svg" width="1200" height="1200" viewBox="0 0 29.672 29.871"><defs></defs><g transform="translate(0)"><path style="fill:#fff" d="M153.858,314.271c-.283-.06-.523-.112-.763-.162a4,4,0,0,1-2.3-1.253,2.611,2.611,0,0,1-.44-.682c-.2-.48-.067-.694.414-.889a1.9,1.9,0,0,0,.5-.407.456.456,0,0,0,.094-.2,2.439,2.439,0,0,1,2.445-1.852,1.177,1.177,0,0,0,.2-.048,6.381,6.381,0,0,1-.626-1.875,1.786,1.786,0,0,1,.327.04,8.323,8.323,0,0,1,5.646,5.27,9.46,9.46,0,0,1,.217,4.125,26.067,26.067,0,0,1-2.57,8.609c-.037.076-.069.155-.138.31a3.831,3.831,0,0,0,2.794-1.78,4.187,4.187,0,0,0,.168-3.248,2.749,2.749,0,0,1,3.055,2.464,3.618,3.618,0,0,1-3.877,4.115c-3.149.015-6.3,0-9.446,0-1.24,0-2.479-.006-3.719.007a.522.522,0,0,1-.51-.275,5.564,5.564,0,0,1,1.444-7.574,26.9,26.9,0,0,1,2.57-1.4c1.1-.608,2.232-1.182,3.29-1.864A2.62,2.62,0,0,0,153.858,314.271Z" transform="translate(-133.245 -296.949)"/><path style="fill:#fff" d="M3.56,306.907l-.672,1.8c.311.062.633.13.956.19a1.865,1.865,0,0,1,1.412,1.144c.1.214.2.428.289.644a.833.833,0,0,0,.644.558c.4.064.471.328.387.654a2.48,2.48,0,0,1-1.488,1.653c-.644.294-1.324.51-2.063.79a6.636,6.636,0,0,0,.559.713,11.118,11.118,0,0,0,2.784,1.884c.5.259,1.017.5,1.585.772a6.509,6.509,0,0,0-3.294,3.951,6.379,6.379,0,0,0,.658,5.06c-.159.01-.276.023-.393.023q-3.5,0-6.991,0a4.153,4.153,0,0,1-2.787-.954,3.506,3.506,0,0,1-.87-4.135,2.831,2.831,0,0,1,2.771-1.508c-.348,1.391-.442,2.752.641,3.9a3.8,3.8,0,0,0,2.31,1.1l-.192-.4a26.354,26.354,0,0,1-2.585-9.326A7.941,7.941,0,0,1,3.069,306.9c.124-.035.253-.051.38-.075Z" transform="translate(6.057 -296.876)"/><path style="fill:#fff" d="M171.548,282.275A1.4,1.4,0,0,1,171,283.43a5.456,5.456,0,0,1-2.262,1.07.454.454,0,0,1-.392-.112c-.452-.615-.9-1.234-1.3-1.885a1.585,1.585,0,0,1-.164-.825,1.114,1.114,0,0,1,1.752-.939,2.008,2.008,0,0,0,1.692.448A1.084,1.084,0,0,1,171.548,282.275Z" transform="translate(-154.023 -272.552)"/><path style="fill:#fff" d="M139.831,212.15c.433.2.7-.09.979-.444a.876.876,0,0,1,1.094-.293,1.027,1.027,0,0,1,.633,1.04,4.17,4.17,0,0,1-.991,2.158.369.369,0,0,1-.295.1,4.53,4.53,0,0,1-1.982-.67,1.138,1.138,0,0,1-.55-.84C138.655,212.558,139.057,212.159,139.831,212.15Z" transform="translate(-127.945 -208.483)"/><path style="fill:#fff" d="M209.556,228.526a.808.808,0,0,1,.43-.843.643.643,0,0,1,.807.179.789.789,0,0,0,.856.328.61.61,0,0,1,.708.36.737.737,0,0,1-.132.893,2.938,2.938,0,0,1-1.721.7.247.247,0,0,1-.192-.084A3.072,3.072,0,0,1,209.556,228.526Z" transform="translate(-193.519 -223.554)"/><path style="fill:#fff" d="M188.06,173.072a.186.186,0,0,1,.073.006,1.189,1.189,0,0,0,1.067.011c.38-.134.715.331.56.745a2.068,2.068,0,0,1-1.013.983.193.193,0,0,1-.108.014,1.858,1.858,0,0,1-1.094-1.2A.517.517,0,0,1,188.06,173.072Z" transform="translate(-173.145 -173.065)"/></g></svg>