<svg xmlns="http://www.w3.org/2000/svg" xmlns:xlink="http://www.w3.org/1999/xlink" width="15" height="4" viewBox="0 0 15 4"><defs><clipPath id="a"><rect  width="15" height="4" transform="translate(0.062)"/></clipPath></defs><g transform="translate(-105.062 -373.89)"><g transform="translate(105 373.89)"><g ><path  d="M396.182,374.435a1.864,1.864,0,1,1-2.637,0,1.864,1.864,0,0,1,2.637,0" transform="translate(-381.812 -373.889)"/><path  d="M252.182,374.435a1.864,1.864,0,1,1-2.637,0,1.864,1.864,0,0,1,2.637,0" transform="translate(-243.405 -373.889)"/><path  d="M108.182,374.435a1.864,1.864,0,1,1-2.637,0,1.864,1.864,0,0,1,2.637,0" transform="translate(-104.999 -373.889)"/></g></g></g></svg>