<svg xmlns="http://www.w3.org/2000/svg" width="16.001" height="20.189" viewBox="0 0 16.001 20.189"><defs></defs><path  d="M243.906,579.249a3.05,3.05,0,0,0,5.583,0Zm0,0" transform="translate(-238.697 -560.882)"/><path  d="M254.791,231.819a6.861,6.861,0,0,1,2.342.41v-.09a2.252,2.252,0,0,0-2.249-2.249H254.7a2.252,2.252,0,0,0-2.249,2.249v.089a6.876,6.876,0,0,1,2.342-.409Zm0,0" transform="translate(-246.791 -229.89)"/><path  d="M160.218,303.186H145.433a.6.6,0,0,1-.594-.462.575.575,0,0,1,.316-.654,3.139,3.139,0,0,0,.955-1.3,15,15,0,0,0,1-5.935,5.72,5.72,0,0,1,11.44-.023c0,.008,0,.015,0,.023a15,15,0,0,0,1,5.935,3.139,3.139,0,0,0,.955,1.3.575.575,0,0,1,.316.654.6.6,0,0,1-.594.462Zm.284-1.112h0Zm0,0" transform="translate(-144.825 -286.003)"/></svg>