<svg xmlns="http://www.w3.org/2000/svg" width="1200" height="1000" viewBox="0 0 30 25"><defs></defs><g transform="translate(-60.454 61.5)"><path style="fill:#fff" d="M197.58,439.156a12.325,12.325,0,0,1,4.212-.145,35.418,35.418,0,0,0,4.513.4c3.858,0,5.938-1.481,11.394-6.47l.556-.509-.446-.637a2.461,2.461,0,0,0-3.423-.44c-1.372,1-2.392,1.826-3.157,2.5-1.6,1.409-2.522,2.067-4.212,2.067a22.555,22.555,0,0,1-4.988-.887l.416-1.665c3.908.976,5,1.135,6.23.346A4.515,4.515,0,0,0,204.978,430a15.322,15.322,0,0,0-9.083,1.547Zm0,0" transform="translate(-127.961 -477.433)"/><g transform="translate(-729 -3687)"><path style="fill:#fff" d="M112.9,381.376a3.338,3.338,0,0,0-5.62,0l-1.486,2.319a2.113,2.113,0,0,0,2.629,3.074l.028-.012a4.153,4.153,0,0,1,3.307.012,2.1,2.1,0,0,0,.848.179,2.127,2.127,0,0,0,.473-.054,2.113,2.113,0,0,0,1.308-3.2Zm0,0" transform="translate(700.267 3250.532)"/><path style="fill:#fff" d="M43.46,300.542a1.62,1.62,0,0,0,.946-1A2.153,2.153,0,0,0,43.428,297a1.62,1.62,0,0,0-1.374-.111,1.855,1.855,0,0,0-.908,2.447,1.957,1.957,0,0,0,1.76,1.309,1.534,1.534,0,0,0,.554-.1Zm0,0" transform="translate(763 3331.363)"/><path style="fill:#fff" d="M167.427,202.478a2.314,2.314,0,1,0-2.013-2.294,2.17,2.17,0,0,0,2.013,2.294Zm0,0" transform="translate(641.917 3427.61)"/><path style="fill:#fff" d="M326.407,242.217h0a1.641,1.641,0,0,0,.518.084,2.087,2.087,0,0,0,1.9-1.495,2.25,2.25,0,0,0-.032-1.552,1.7,1.7,0,0,0-2.523-.839,2.25,2.25,0,0,0-.955,1.224,1.99,1.99,0,0,0,1.092,2.578Zm0,0" transform="translate(486.414 3388.435)"/><path style="fill:#fff" d="M420.711,369.249h0a1.973,1.973,0,0,0-2.329,3.147,1.574,1.574,0,0,0,.945.305,2.036,2.036,0,0,0,1.608-.851,1.856,1.856,0,0,0-.223-2.6Zm0,0" transform="translate(396.35 3261.135)"/></g><path style="fill:#fff" d="M6.65,8.946h0A25.363,25.363,0,0,1,2.687,1.294L7.917,0,9.728,8.183,6.65,8.946Z" transform="translate(58.406 -45.223)"/></g></svg>