<svg xmlns="http://www.w3.org/2000/svg" width="500" height="500" viewBox="0 0 25.963 25.914"><defs></defs><g transform="translate(-222.544 -335.169)"><path style="fill:#fff" d="M286.041,400.781h1.484v10.595H278.4c0-.61,0-1.224,0-1.838,0-1.83-.87-2.677-2.716-2.669-1.16.005-2.319.011-3.479-.007a3.777,3.777,0,0,1-3.5-2.884.755.755,0,0,1,.007-.163,3.8,3.8,0,0,0,2.751-1.43,3.746,3.746,0,0,0,.811-2.682c-.022-.293-.084-.572.256-.759.11-.06.157-.256.208-.4.183-.508.322-1.034.538-1.527a3.675,3.675,0,0,1,3.337-2.334c.568-.036,1.14-.006,1.791-.006,0,.2,0,.376,0,.553.015,2.118-.039,4.239.069,6.352a3.637,3.637,0,0,0,2.362,3.513,3.832,3.832,0,0,0,5.2-3.574C286.047,401.292,286.041,401.062,286.041,400.781Zm-9.184-1.554v-1.482H275.4v1.482Z" transform="translate(-39.019 -50.294)"/><path style="fill:#fff" d="M341.347,394.758a3.818,3.818,0,0,1,4.465,3.114,12.863,12.863,0,0,1,.06,2.08c.007.572.008,1.144,0,1.716a2.277,2.277,0,0,1-4.547.069c-.028-2.272-.01-4.545-.009-6.817A.955.955,0,0,1,341.347,394.758Z" transform="translate(-100.392 -50.344)"/><path style="fill:#fff" d="M260.992,424.282c1.013,0,1.967-.006,2.92.01a.383.383,0,0,1,.265.228,2.276,2.276,0,0,1-2.155,2.8.386.386,0,0,1-.3-.187C261.472,426.2,261.241,425.267,260.992,424.282Z" transform="translate(-32.501 -75.328)"/><path style="fill:#fff" d="M313.525,414.57Z" transform="translate(-75.686 -67.119)"/><path style="fill:#fff" d="M240.472,338.986c-2.75-1.1-5.5-2.209-8.253-3.295a6.571,6.571,0,0,0-6.355.676c-.992.655-1.974,1.328-2.973,1.973a.651.651,0,0,0-.348.63c.015,2.148.007,4.3.009,6.446,0,.132.018.265.029.409h0c1.205,0,2.377.015,3.549,0a4.085,4.085,0,0,0,2.53-.778,3.9,3.9,0,0,1,2.852-.723c.447.02.9.006,1.345,0h0l.013-.013c.365-.069.331-.349.331-.349v-2.35a.363.363,0,0,0-.363-.363h-4.148V339.8h0c.131-.007.237-.017.342-.017,1.638,0,3.277-.005,4.915.005a1.783,1.783,0,0,1,.623.133c1.149.452,2.291.919,3.437,1.378.638.256,1.279.5,1.947.767h0l.85-2.313A.6.6,0,0,0,240.472,338.986Z"/></g></svg>