<svg xmlns="http://www.w3.org/2000/svg" width="500" height="500" viewBox="0 0 25 25"><defs></defs><g transform="translate(201 78.11)"><path style="fill:#fff" d="M-201,314.141a.719.719,0,0,1,.908-.468.894.894,0,0,1,.327.2q1.043.962,2.073,1.938a.225.225,0,0,0,.241.057q.729-.169,1.464-.311a3.216,3.216,0,0,1,.46-.028c.545-.025,1.091-.037,1.635-.077,1.167-.086,2.334-.171,3.5-.285a12.683,12.683,0,0,0,2.562-.484.161.161,0,0,1,.131.029q1.335,1.189,2.665,2.383l1.824,1.634.1.092-.078.126c-.3.482-.6.963-.893,1.446a5.547,5.547,0,0,0-.606,1.842,26.506,26.506,0,0,0-.5,4.378c0,.054,0,.107,0,.166.173.024.342.04.508.072a2.851,2.851,0,0,1,1.2.491,1.073,1.073,0,0,1,.46.757.5.5,0,0,1-.247.508,1.535,1.535,0,0,1-.684.22c-.058.007-.115.015-.173.023H-186a.433.433,0,0,0-.07-.023,1.422,1.422,0,0,1-1.074-.772,2.514,2.514,0,0,1-.3-.959c-.1-.969-.184-1.94-.278-2.91-.072-.734-.144-1.467-.229-2.2a4.368,4.368,0,0,0-.149-.63.154.154,0,0,0-.21-.118,1.515,1.515,0,0,1-.372.036c-.728-.025-1.456-.049-2.184-.09a15.082,15.082,0,0,0-2.185-.034c-.319.028-.635.083-.952.133-.094.015-.194.042-.2.168a5.158,5.158,0,0,1-.463,1.69,17.747,17.747,0,0,1-1.139,2.194.739.739,0,0,0-.1.55,2.514,2.514,0,0,0,.357.82.364.364,0,0,0,.331.192,3.209,3.209,0,0,1,1.088.2.917.917,0,0,1,.652.947.627.627,0,0,1-.51.7,3.337,3.337,0,0,1-.579.079c-.211.017-.423.019-.635.027h-.125a.992.992,0,0,0-.11-.014c-.358-.005-.717-.013-1.075-.012a1.333,1.333,0,0,1-.858-.292,5.8,5.8,0,0,1-1.594-2.041.868.868,0,0,1-.073-.6c.074-.307.156-.613.243-.917.122-.428.26-.852.376-1.282a1.676,1.676,0,0,0-.173-1.326c-.086-.147-.165-.3-.239-.453-.213-.442-.441-.879-.628-1.332a2.735,2.735,0,0,1-.1-1.885c.124-.406.257-.809.392-1.212a.194.194,0,0,0-.023-.194c-.172-.256-.343-.513-.506-.774-.44-.706-.875-1.416-1.312-2.124Z" transform="translate(0 -381.948)"/><path style="fill:#fff" d="M371.025,120.847a3.341,3.341,0,0,1-1.46,1.171,4.162,4.162,0,0,1-.9.3,2.175,2.175,0,0,1-1.342-.175,9.61,9.61,0,0,1-1.639-.929c-.136-.092-.282-.168-.433-.257a6.818,6.818,0,0,1-.9,1.925l-4.3-3.854a.2.2,0,0,1,.034-.038,13.96,13.96,0,0,0,3.312-3.019c.507-.617.956-1.281,1.44-1.918a3.107,3.107,0,0,1,.472-.528.458.458,0,0,1,.792.283,1.7,1.7,0,0,1,.008.518c-.035.343-.105.683-.132,1.026a1,1,0,0,0,.346.835q1.8,1.676,3.583,3.361c.288.271.578.541.86.819a3.39,3.39,0,0,1,.263.329Z" transform="translate(-547.018 -186.703)"/><path style="fill:#fff" d="M-129.544-78.11c.2.189.407.38.614.565l10.093,9.039c.034.03.066.062.111.1l-.605.545-10.843-9.711c.174-.156.339-.3.5-.451a.888.888,0,0,0,.078-.092Z" transform="translate(-69.055)"/></g></svg>