<svg xmlns="http://www.w3.org/2000/svg" width="19.232" height="16.152" viewBox="0 0 19.232 16.152"><defs></defs><g transform="translate(-105 -259.89)"><path class="a" d="M138,259.89h-1.127a1.127,1.127,0,0,0-1.127,1.127h3.381A1.127,1.127,0,0,0,138,259.89Zm0,0" transform="translate(-29.21)"/><path class="a" d="M122.166,262.144H118.4l-.366-1.1a1.688,1.688,0,0,0-1.6-1.156H112.8a1.688,1.688,0,0,0-1.6,1.156l-.366,1.1h-3.763A2.068,2.068,0,0,0,105,264.21v9.766a2.068,2.068,0,0,0,2.066,2.066h15.1a2.068,2.068,0,0,0,2.066-2.066V264.21a2.068,2.068,0,0,0-2.066-2.066Zm-15.251,2.066a.563.563,0,0,1,.563-.563h1.127a.563.563,0,0,1,0,1.127h-1.127a.563.563,0,0,1-.563-.563Zm7.7,9.954a5.447,5.447,0,1,1,5.447-5.447,5.453,5.453,0,0,1-5.447,5.447Zm6.761-9.391a.563.563,0,1,1,.563-.563.563.563,0,0,1-.563.563Zm0,0"/><path class="a" d="M215.07,349.89a4.32,4.32,0,1,0,4.32,4.32,4.325,4.325,0,0,0-4.32-4.32Zm0,7.325a3.005,3.005,0,1,1,3.005-3.005,3.008,3.008,0,0,1-3.005,3.005Zm0,0" transform="translate(-100.454 -85.492)"/><path class="a" d="M263.256,400.518a1.878,1.878,0,1,1-1.878-1.878,1.878,1.878,0,0,1,1.878,1.878Zm0,0" transform="translate(-146.762 -131.801)"/></g></svg>