<svg xmlns="http://www.w3.org/2000/svg" width="18.613" height="16.082" viewBox="0 0 18.613 16.082"><defs></defs><g transform="translate(-62.664 -87.687)"><path class="a" d="M72.307,303.2a2.354,2.354,0,0,1-1.478-.551l-2.73-2.4a1.2,1.2,0,0,0-1.553-.075l-3.882,2.855v1.853a.9.9,0,0,0,.85.951q.038,0,.077,0H77.34a1.054,1.054,0,0,0,1.1-.952v-4.858l-4.933,2.855A2.279,2.279,0,0,1,72.307,303.2Z" transform="translate(0 -202.064)"/><path class="a" d="M237.771,221a1.1,1.1,0,1,0,1.1,1.1,1.1,1.1,0,0,0-1.1-1.1Z" transform="translate(-165.664 -126.919)"/><path class="a" d="M134.119,89.269,120.47,87.691a1,1,0,0,0-1.127.851l-.225,1.953h11.97a2.154,2.154,0,0,1,2.1,2.079v8.84c0-.05.225-.1.326-.2a.851.851,0,0,0,.326-.676l1.177-10.167a.976.976,0,0,0-.225-.726A.927.927,0,0,0,134.119,89.269Z" transform="translate(-53.748)"/><path class="a" d="M77.369,167.184H63.621a1.011,1.011,0,0,0-.927,1.077V175.4l3.306-2.4a2.2,2.2,0,0,1,2.78.125l2.755,2.4a1.277,1.277,0,0,0,1.478.125l5.459-3.18v-4.207A1.152,1.152,0,0,0,77.369,167.184Zm-5.234,5.785a2.1,2.1,0,1,1,2.1-2.1A2.1,2.1,0,0,1,72.135,172.969Z" transform="translate(-0.029 -75.686)"/></g></svg>