<svg xmlns="http://www.w3.org/2000/svg" xmlns:xlink="http://www.w3.org/1999/xlink" width="38.5" height="36.997" viewBox="0 0 38.5 36.997"><defs><clipPath id="a"><rect class="a" width="38.5" height="36.997"/></clipPath></defs><g transform="translate(-258 -382.89)"><g transform="translate(258 382.89)"><g class="b"><path class="c" d="M303.692,391.878a4.606,4.606,0,1,1,3.539-5.468,4.607,4.607,0,0,1-3.539,5.468Zm0,0" transform="translate(-278.559 -382.827)"/><path class="c" d="M258.49,421.265l2.07-.821,3.409-6.006,4.371-3.207,1.971,1.145,2.03-.739a1.789,1.789,0,0,1,1.651-1.1,6.449,6.449,0,0,0,6.763-5.8,4.22,4.22,0,0,1,2.436-3.177,3.7,3.7,0,0,1,.952-.341,6.839,6.839,0,0,1,1.046-.1h.013a3.907,3.907,0,0,1,3.87,2.787l2.13,9.94a3.086,3.086,0,0,1-.1,1.676c-.027.1-2.234,5.556-2.234,5.556h5a2.438,2.438,0,0,1,0,4.876h-8.624a2.438,2.438,0,0,1-2.261-3.356l1.372-3.373-2.966.849,1.116,6.137a2.438,2.438,0,0,1-4.8.872l-1.513-8.31A2.439,2.439,0,0,1,277.923,416l4.8-1.373-.781-3.644c-1.762,2.057-4.434,3.127-7.952,3.127a1.764,1.764,0,0,1-1.135-.417l-1.7.617-4.653,8.9.2,4.794a1.052,1.052,0,0,1-1.009,1.1.326.326,0,0,1-.044,0,1.055,1.055,0,0,1-1.053-1.012l-.126-3.061-.5,3.291a1.053,1.053,0,0,1-1.04.893,1.213,1.213,0,0,1-.162-.011,1.056,1.056,0,0,1-.882-1.2l.823-5.377-1.411-.8-2.234.887a.794.794,0,0,1-.286.054.776.776,0,0,1-.288-1.5Zm0,0" transform="translate(-258 -392.235)"/></g></g><path class="c" d="M269.525,413.127c-.137.13-.275.261-.415.391a6,6,0,0,0,.469,1.412l-4.257,3.078c-.288-.448-.575-.9-.861-1.351a30.558,30.558,0,0,0-1.977-2.9,4.615,4.615,0,0,0-.7-.67c-1.164-.908-.44-1.537-.254-1.646a1.452,1.452,0,0,1,1.463.031c.267.143.533.29.8.438a.168.168,0,0,0,.212-.017c.123-.093.261-.175.392-.257a16.8,16.8,0,0,1,2.335-.741c.278-.12,2.013-2.108,2.933-1.623a1.931,1.931,0,0,1,.752,2.514,3.393,3.393,0,0,1-.9,1.347Zm0,0" transform="translate(-1.61 -13.476)"/></g></svg>