<svg xmlns="http://www.w3.org/2000/svg" width="29.987" height="29.046" viewBox="0 0 29.987 29.046"><defs></defs><g transform="translate(0)"><path class="a" d="M375.072,427.23a4.4,4.4,0,0,1-2.823,1.08c-.044,0-.088,0-.132,0v5.4h0v7.608h4.366a3.235,3.235,0,0,0,3.231-3.231v-10.2a4.132,4.132,0,0,1-1.82.428A4.4,4.4,0,0,1,375.072,427.23Z" transform="translate(-351.61 -412.27)"/><path class="a" d="M97.646,341.959v-5.092H92v1.944a3.7,3.7,0,0,0,5.646,3.148Z" transform="translate(-92 -328.523)"/><path class="a" d="M195.062,342.513a3.678,3.678,0,0,0,1.945-.554v-5.092h-3.889v5.092A3.68,3.68,0,0,0,195.062,342.513Z" transform="translate(-185.714 -328.523)"/><path class="a" d="M123.447,225.79a4.176,4.176,0,0,0-3.844-2.9H99.842A4.176,4.176,0,0,0,96,225.79l-1.054,3.688H124.5Z" transform="translate(-94.729 -222.89)"/><path class="a" d="M424.48,336.867v5.092a3.7,3.7,0,0,0,5.646-3.148v-1.944Z" transform="translate(-400.139 -328.523)"/><path class="a" d="M272.186,342.513a3.679,3.679,0,0,0,1.944-.553v-5.092h-3.889v5.092A3.675,3.675,0,0,0,272.186,342.513Z" transform="translate(-257.193 -328.523)"/><path class="a" d="M349.3,342.513a3.677,3.677,0,0,0,1.944-.553v-5.092h-3.889v5.092A3.678,3.678,0,0,0,349.3,342.513Z" transform="translate(-328.664 -328.523)"/><path class="a" d="M133.645,427.23a5.454,5.454,0,0,1-5.646,0,5.455,5.455,0,0,1-5.646,0,5.455,5.455,0,0,1-4.642.475v10.38a3.235,3.235,0,0,0,3.231,3.231h13.637V427.68A5.437,5.437,0,0,1,133.645,427.23Zm-2.356,7.749a1.348,1.348,0,0,1-2.648.5H123.65a1.347,1.347,0,0,1-2.677-.25,1.332,1.332,0,0,1,.418-.97,1.348,1.348,0,1,1,2.258-1.222h4.993a1.344,1.344,0,0,1,1.325-1.1h0a14.553,14.553,0,0,0,1.322,3.042Z" transform="translate(-115.829 -412.27)"/></g></svg>