<svg xmlns="http://www.w3.org/2000/svg" width="36.296" height="36.228" viewBox="0 0 36.296 36.228"><defs></defs><g transform="translate(-222.544 -335.169)"><path class="a" d="M292.942,403.215h2.074v14.812H282.259c0-.853,0-1.712,0-2.57,0-2.558-1.216-3.743-3.8-3.732-1.621.007-3.242.015-4.863-.01a5.281,5.281,0,0,1-4.89-4.032,1.053,1.053,0,0,1,.01-.228,5.31,5.31,0,0,0,3.845-2,5.237,5.237,0,0,0,1.134-3.75c-.03-.409-.118-.8.358-1.061.154-.084.219-.357.291-.556.256-.71.45-1.446.752-2.135a5.137,5.137,0,0,1,4.665-3.264c.794-.051,1.594-.008,2.5-.008,0,.278,0,.525,0,.773.021,2.961-.054,5.926.1,8.88a5.085,5.085,0,0,0,3.3,4.911,5.357,5.357,0,0,0,7.275-5C292.95,403.929,292.942,403.608,292.942,403.215ZM280.1,401.043v-2.072h-2.042v2.072Z" transform="translate(-36.177 -46.631)"/><path class="a" d="M341.363,394.772c3.182-.356,5.712,1.38,6.242,4.354a17.981,17.981,0,0,1,.084,2.908c.01.8.011,1.6,0,2.4a3.183,3.183,0,0,1-6.357.1c-.039-3.176-.014-6.353-.013-9.53A1.338,1.338,0,0,1,341.363,394.772Z" transform="translate(-93.08 -46.677)"/><path class="a" d="M260.992,424.283c1.417,0,2.75-.009,4.083.014a.534.534,0,0,1,.37.318,3.181,3.181,0,0,1-3.012,3.917.54.54,0,0,1-.415-.261C261.662,426.969,261.34,425.659,260.992,424.283Z" transform="translate(-30.133 -69.841)"/><path class="a" d="M313.525,414.57Z" transform="translate(-69.599 -62.23)"/><path class="a" d="M247.607,340.5c-3.845-1.538-7.685-3.088-11.538-4.606a9.187,9.187,0,0,0-8.884.945c-1.388.916-2.759,1.856-4.156,2.758a.91.91,0,0,0-.486.881c.02,3,.01,6.007.013,9.011,0,.185.026.37.041.571h0c1.685,0,3.323.021,4.961-.007a5.71,5.71,0,0,0,3.536-1.087,5.445,5.445,0,0,1,3.987-1.011c.625.028,1.253.008,1.88,0h0l.018-.019c.51-.1.463-.488.463-.488v-3.285a.507.507,0,0,0-.507-.507h-5.8v-2.024h0c.184-.01.331-.023.478-.023,2.291,0,4.581-.008,6.872.008a2.493,2.493,0,0,1,.871.187c1.606.632,3.2,1.285,4.805,1.927.892.357,1.789.7,2.722,1.072h0l1.189-3.234A.84.84,0,0,0,247.607,340.5Z" transform="translate(0)"/></g></svg>