<svg xmlns="http://www.w3.org/2000/svg" width="184.288" height="176.087" viewBox="0 0 184.288 176.087"><g transform="translate(-160.315 -102.301)"><circle style="fill:rgba(61,107,255,0.2)" opacity="0.23" cx="62.256" cy="62.256" r="62.256" transform="translate(163.573 190.345) rotate(-45)"/><path style="fill:#3d6bff;" opacity="0.43"  d="M302.463,205.309V226.24a62.626,62.626,0,0,1-7.726,8.986V205.309h-.012v-.071c-.035-.155-3.791-3.269-6.68-5.634V198.3l3.495-.9a6.648,6.648,0,0,1,4.291.333c.606.262,1.236.511,1.866.713v2.734a60.839,60.839,0,0,1,4.754,4.065v.071Z"/><path style="fill:#ffbe0b;" d="M163.011,110.469l18.269,42.865,13.353-9.135,7.738,11.244,1.4-18.967,16.16-9.847Z"/><path style="fill:#ff9433;" d="M197.592,142.171,181.28,153.335l13.353-9.135,7.738,11.244,1.4-18.967-25.75-15.336Z"/><path style="fill:#f73;" d="M203.425,141.126l-25.408-19.985,25.75,15.336Z"/><path style="fill:#9db4ff;" d="M202.7,160.79c-.144-.835-.327-1.668-.543-2.477l1.253-.335c.226.846.417,1.718.568,2.591Z"/><path style="fill:#9db4ff;" d="M187.57,189.906a10.717,10.717,0,0,1-5.208-1.738l.717-1.08a9.427,9.427,0,0,0,4.577,1.524Zm5.387-1.058-.572-1.163a13.053,13.053,0,0,0,3.879-3.055l.965.866A14.3,14.3,0,0,1,192.957,188.848Zm-14.2-4.821a10.693,10.693,0,0,1-1.118-4.712c0-.131,0-.263.008-.394l.016-.281,1.293.1-.013.236c0,.117-.007.231-.007.344a9.379,9.379,0,0,0,.984,4.138Zm50.175-.3-.006-1.3c1.689-.008,3.427-.077,5.166-.205l.1,1.293C232.415,183.653,230.647,183.723,228.928,183.731Zm-5.26-.17-.828-.064c-1.594-.133-3.039-.312-4.416-.551l.22-1.278c1.34.232,2.748.407,4.3.537l.811.061Zm15.74-.59-.175-1.285c1.668-.227,3.387-.511,5.11-.843l.245,1.273C242.843,182.453,241.1,182.741,239.408,182.971Zm-26.137-1.311a25.118,25.118,0,0,1-4.248-1.882c-.2-.114-.406-.233-.606-.354l.67-1.111c.189.114.379.226.572.334a23.828,23.828,0,0,0,4.03,1.786Zm-12.942-.516L199.2,180.5a29.123,29.123,0,0,0,2.139-4.625l1.22.44A30.536,30.536,0,0,1,200.329,181.144ZM249.714,181l-.305-1.26c1.622-.394,3.31-.841,5.016-1.329l.357,1.247C253.058,180.151,251.354,180.6,249.714,181Zm10.077-2.872-.4-1.234q2.472-.8,4.92-1.673l.434,1.223Q262.282,177.318,259.791,178.128Zm-55.7-1.709a35.891,35.891,0,0,0-3.861-2.54l-.434-.23.594-1.153c.155.079.309.162.462.245a37.56,37.56,0,0,1,4,2.63Zm-23.318-1.95-.907-.927a11.078,11.078,0,0,1,4.773-2.561l.436,1.223A10.1,10.1,0,0,0,180.769,174.469Zm14.286-2.532a20.6,20.6,0,0,0-4.494-.5l-.526.006-.032-1.3a21.938,21.938,0,0,1,5.336.522Zm8.878-.764-1.277-.227a30.107,30.107,0,0,0,.46-5.078l1.3.006A31.365,31.365,0,0,1,203.933,171.173Z"/><path style="fill:#9db4ff;" d="M269.709,174.615l-.461-1.212q1.211-.462,2.418-.935l.471,1.209Q270.926,174.15,269.709,174.615Z"/><path style="fill:#3d6bff;" d="M310.536,206.221a1.3,1.3,0,0,1-.125-2.587,30.806,30.806,0,0,0,20.3-10.535,1.3,1.3,0,0,1,1.955,1.7,33.374,33.374,0,0,1-22.007,11.413Q310.6,206.221,310.536,206.221Z"/><path style="fill:#7a4c08;" d="M294.73,205.31l-45.18,26.643L204.371,205.31a.258.258,0,0,1,.007-.073c.037-.169,2.531-2.251,6.334-5.341.036-.029.066-.058.1-.088,12.475-10.129,38.735-30.872,38.735-30.872s26.261,20.743,38.736,30.872c3.862,3.134,6.4,5.252,6.437,5.429A.258.258,0,0,1,294.73,205.31Z"/><path style="fill:#fff;" d="M268.131,146.871H219.385a7.571,7.571,0,0,0-7.571,7.571v73.7a7.571,7.571,0,0,0,7.571,7.57h61.08a7.571,7.571,0,0,0,7.571-7.57V166.776Z"/><path style="fill:#e6e8e8;" d="M268.131,159.206a7.57,7.57,0,0,0,7.571,7.57h12.334l-19.9-19.9Z"/><rect style="fill:rgba(61,107,255,0.5);" opacity="0.43" width="22.211" height="22.211" rx="2.697" transform="translate(223.345 159.329)"/><path style="fill:#d9dbdb;" d="M265.9,187.713H225.544a2.173,2.173,0,0,0-2.173,2.173h0a2.173,2.173,0,0,0,2.173,2.173H265.9a2.173,2.173,0,0,0,2.173-2.173h0A2.173,2.173,0,0,0,265.9,187.713Z"/><path style="fill:#d9dbdb;" d="M265.9,198.537H225.544a2.173,2.173,0,0,0-2.173,2.173h0a2.173,2.173,0,0,0,2.173,2.173H265.9a2.173,2.173,0,0,0,2.173-2.173h0A2.173,2.173,0,0,0,265.9,198.537Z"/><path style="fill:#d9dbdb;" d="M247.571,209.037H225.544a2.173,2.173,0,0,0-2.173,2.173h0a2.173,2.173,0,0,0,2.173,2.173h22.027a2.173,2.173,0,0,0,2.173-2.173h0A2.173,2.173,0,0,0,247.571,209.037Z"/><path style="fill:#ffbe0b;" d="M294.735,205.309v43.344a5.52,5.52,0,0,1-5.506,5.505H209.867a5.507,5.507,0,0,1-5.491-5.505V205.309l45.179,26.638Z"/><path opacity="0.39" style="fill:#ff9433;" d="M293.208,252.433l-29.079-29.079-14.574,8.593-14.579-8.6L205.9,252.432a5.456,5.456,0,0,0,3.972,1.726h79.362A5.478,5.478,0,0,0,293.208,252.433Z"/><path style="fill:#3d6bff;" d="M303.86,145.808a27.255,27.255,0,0,0-24.326,25.032,26.95,26.95,0,0,0,4.761,17.388,6.582,6.582,0,0,1,.627,6.274l-2.145,5.164,8.767-2.273a6.608,6.608,0,0,1,4.292.332,27.143,27.143,0,1,0,8.024-51.917Z"/><path style="fill:#fff;" d="M307.276,186.53l1.492-1.491s-1.185-2.793,3.783-7.5c2.956-2.8,3.618-5.517,3.377-7.735a7.754,7.754,0,0,0-6.8-6.8c-2.219-.24-4.933.421-7.735,3.378-4.709,4.967-7.5,3.782-7.5,3.782l-1.492,1.492Z"/><path style="fill:#fff;" d="M295.767,177.42a4.11,4.11,0,0,0,5.746,5.745Z"/><path style="fill:#fff;" d="M316.971,164.815l-.929.929a8.982,8.982,0,0,0-2.863-2.848l.936-.937a2.02,2.02,0,1,1,2.856,2.856Z"/><path style="fill:#2851ff;" d="M305.874,145.692a23.443,23.443,0,1,1-23.964,38.326,27.121,27.121,0,0,0,2.385,4.21,6.582,6.582,0,0,1,.627,6.274l-2.145,5.164,8.767-2.273a6.608,6.608,0,0,1,4.292.332,27.137,27.137,0,1,0,10.038-52.033Z"/><path style="fill:#ffb031;" d="M164.559,123.18l5.926,13.6a1.367,1.367,0,0,1-.712,1.8l-.211.091a1.367,1.367,0,0,1-1.8-.723l-5.714-13.69a1.366,1.366,0,0,1,.786-1.812h0A1.366,1.366,0,0,1,164.559,123.18Z"/><path style="fill:rgba(61,107,255,0.2);" opacity="0.43"   d="M187.774,218.877a4.356,4.356,0,1,0,4.356,4.357A4.356,4.356,0,0,0,187.774,218.877Zm0,6.12a1.763,1.763,0,1,1,1.763-1.763A1.763,1.763,0,0,1,187.774,225Z"/><path style="fill:rgba(61,107,255,0.2);" opacity="0.43"   d="M304.521,236.507a4.356,4.356,0,1,0,4.356,4.356A4.356,4.356,0,0,0,304.521,236.507Zm0,6.12a1.763,1.763,0,1,1,1.763-1.764A1.764,1.764,0,0,1,304.521,242.627Z"/><path style="fill:rgba(61,107,255,0.2);" opacity="0.43"   d="M340.164,168.839a3.336,3.336,0,1,0,3.336,3.336A3.336,3.336,0,0,0,340.164,168.839Zm0,4.686a1.35,1.35,0,1,1,1.35-1.35A1.35,1.35,0,0,1,340.164,173.525Z"/><path style="fill:rgba(61,107,255,0.2);" opacity="0.43"   d="M281.427,115.477A3.527,3.527,0,1,0,284.954,119,3.527,3.527,0,0,0,281.427,115.477Zm0,4.955A1.427,1.427,0,1,1,282.854,119,1.428,1.428,0,0,1,281.427,120.432Z"/><path style="fill:rgba(61,107,255,0.2);" opacity="0.43"   d="M168.608,197.656a3.708,3.708,0,1,0,3.709,3.708A3.708,3.708,0,0,0,168.608,197.656Z"/><path style="fill:rgba(61,107,255,0.2);" opacity="0.43"   d="M317.384,209.931a2.7,2.7,0,1,0,2.7,2.7A2.7,2.7,0,0,0,317.384,209.931Z"/><path style="fill:rgba(61,107,255,0.2);" opacity="0.43"   d="M228.068,116.586a3.942,3.942,0,1,0,3.942,3.942A3.942,3.942,0,0,0,228.068,116.586Z"/><path style="fill:rgba(61,107,255,0.2);" opacity="0.43"   d="M249.171,259.374a2.872,2.872,0,1,0,2.872,2.873A2.873,2.873,0,0,0,249.171,259.374Z"/><path style="fill:rgba(61,107,255,0.2);" opacity="0.43"   d="M304.772,131.79a3.372,3.372,0,1,0,3.372,3.372A3.372,3.372,0,0,0,304.772,131.79Z"/><circle style="fill:rgba(61,107,255,0.2);" opacity="0.43"   cx="1.919" cy="1.919" r="1.919" transform="translate(183.435 158.002)"/><path style="fill:rgba(61,107,255,0.2);" opacity="0.43"   d="M341.329,152.026A3.274,3.274,0,1,0,344.6,155.3,3.274,3.274,0,0,0,341.329,152.026Z"/><circle style="fill:rgba(61,107,255,0.2);" opacity="0.43"   cx="2.089" cy="2.089" r="2.089" transform="translate(164.68 169.351)"/><path style="fill:rgba(61,107,255,0.2);" opacity="0.43"   d="M254.588,109.582l1.312-1.312a1.169,1.169,0,0,0-1.653-1.654l-1.312,1.312-1.312-1.312a1.17,1.17,0,0,0-1.654,1.654l1.312,1.312-1.312,1.312a1.17,1.17,0,1,0,1.654,1.654l1.312-1.312,1.312,1.312a1.169,1.169,0,0,0,1.653-1.654Z"/><path style="fill:rgba(61,107,255,0.2);" opacity="0.43"   d="M165.276,149.232l1.312-1.312a1.17,1.17,0,1,0-1.654-1.654l-1.312,1.312-1.312-1.312a1.17,1.17,0,1,0-1.654,1.654l1.312,1.312-1.312,1.312a1.17,1.17,0,0,0,1.654,1.654l1.312-1.312,1.312,1.312a1.17,1.17,0,1,0,1.654-1.654Z"/><path style="fill:rgba(61,107,255,0.2);" opacity="0.43"   d="M320.023,229.349l1.112-1.111a.991.991,0,0,0-1.4-1.4l-1.111,1.111-1.111-1.111a.991.991,0,0,0-1.4,1.4l1.111,1.111-1.111,1.111a.991.991,0,1,0,1.4,1.4l1.111-1.111,1.111,1.111a.991.991,0,1,0,1.4-1.4Z"/></g></svg>