<svg xmlns="http://www.w3.org/2000/svg" width="31.417" height="31.417" viewBox="0 0 31.417 31.417"><defs></defs><g transform="translate(0.5 0.5)"><path class="a" d="M19.936,30.417H10.482a1.1,1.1,0,0,1-1.093-1.093v-8.3h-8.3A1.1,1.1,0,0,1,0,19.936V10.482A1.1,1.1,0,0,1,1.093,9.388h8.3v-8.3A1.1,1.1,0,0,1,10.482,0h9.454a1.1,1.1,0,0,1,1.093,1.093v8.3h8.3a1.1,1.1,0,0,1,1.093,1.093v9.454a1.1,1.1,0,0,1-1.093,1.093h-8.3v8.3A1.1,1.1,0,0,1,19.936,30.417ZM15.209,19.252a.437.437,0,0,1,.358.188,1.976,1.976,0,0,0,1.612.838c.058,0,.129-.005.224-.012a1.971,1.971,0,0,0,.615-3.741A2.162,2.162,0,0,1,16.994,15.5a1.972,1.972,0,0,0-3.57,0A2.171,2.171,0,0,1,12.4,16.525a1.971,1.971,0,0,0,.617,3.741c.095.009.164.012.224.012a1.983,1.983,0,0,0,1.61-.838A.433.433,0,0,1,15.209,19.252Zm5.074-6.411a1.529,1.529,0,0,0-1.272.875,1.638,1.638,0,0,0-.154,1.24,1,1,0,0,0,.481.609.949.949,0,0,0,.444.109,1.525,1.525,0,0,0,1.271-.874,1.707,1.707,0,0,0,.192-1.085,1.035,1.035,0,0,0-.517-.766A.94.94,0,0,0,20.283,12.841Zm-10.151,0a.935.935,0,0,0-.443.108,1.353,1.353,0,0,0-.327,1.85,1.528,1.528,0,0,0,1.272.875.941.941,0,0,0,.444-.109,1,1,0,0,0,.481-.61,1.65,1.65,0,0,0-.155-1.241A1.527,1.527,0,0,0,10.132,12.841Zm7.422-2.7a1.768,1.768,0,0,0-1.548,1.635,2.069,2.069,0,0,0,.327,1.539,1.273,1.273,0,0,0,.825.528,1.136,1.136,0,0,0,.179.014,1.768,1.768,0,0,0,1.548-1.634,1.7,1.7,0,0,0-1.154-2.068A1.141,1.141,0,0,0,17.554,10.138Zm-4.692,0a1.155,1.155,0,0,0-.178.014,1.255,1.255,0,0,0-.824.526,2.08,2.08,0,0,0-.328,1.542,1.765,1.765,0,0,0,1.548,1.634,1.141,1.141,0,0,0,.178-.014A1.7,1.7,0,0,0,14.41,11.77,1.768,1.768,0,0,0,12.862,10.136Z" transform="translate(0 0)"/></g></svg>